<svg id="Layer_1" data-name="Layer 1" xmlns="http://www.w3.org/2000/svg" viewBox="0 0 2240.09 601.49"><defs><style>.cls-1,.cls-10,.cls-2,.cls-3,.cls-4,.cls-5{fill:#e3d9cd;}.cls-10,.cls-2,.cls-3,.cls-4,.cls-5,.cls-6,.cls-9{stroke:#623111;}.cls-10,.cls-2,.cls-3,.cls-9{stroke-miterlimit:10;}.cls-2{stroke-width:3px;}.cls-3,.cls-4,.cls-6,.cls-9{stroke-width:2px;}.cls-4,.cls-5,.cls-6{stroke-linejoin:round;}.cls-5{stroke-width:4px;}.cls-6,.cls-9{fill:none;}.cls-7{fill:#613419;}.cls-8{fill:#623111;}</style></defs><path class="cls-1" d="M0,0V629H2244.41V0Z"/><rect class="cls-2" x="-1.37" y="559.96" width="2255.76" height="43.23"/><rect class="cls-3" x="1136.3" y="-41.92" width="19.79" height="601.27"/><path class="cls-1" d="M1489.45,547.11s5.88,11.74,5.11,22.21l-49.28,8.93-98.55,4.35-25.53-13.79-5.11-4.09,1.19-10Z"/><path class="cls-4" d="M1721.64,248.61l3.15-12.26a10.43,10.43,0,0,0-10.1-13h-29.43s-16.41-3-17.3,1.33c0,0-11.23,29.13-9,36.67l54.41,6.95,8.28-19.07"/><line class="cls-4" x1="1355.25" y1="116.87" x2="1574.82" y2="116.87"/><polyline class="cls-4" points="1418.68 84.93 1580.14 84.93 1580.14 233.97"/><rect class="cls-4" x="1654.66" y="172.31" width="16.41" height="37.26"/><rect class="cls-4" x="1659.09" y="129.73" width="16.41" height="37.26"/><rect class="cls-4" x="1685.26" y="143.48" width="16.41" height="37.26"/><polygon class="cls-4" points="1764.66 194.05 1722.08 191.83 1722.08 144.37 1764.66 140.82 1764.66 194.05"/><polygon class="cls-4" points="1764.66 194.05 1796.75 195.82 1796.75 137.86 1764.66 140.82 1764.66 194.05"/><path class="cls-4" d="M1710,250.1l4.76-9.15a1.92,1.92,0,0,0-1.9-2.85l-12.65,1.49-5.09.55a4.89,4.89,0,0,1-3.16-.75l-7.23-4.7a3.38,3.38,0,0,0-4.77,1.15c-1.41,2.48-2.78,6.26-1.34,10.23a1.55,1.55,0,0,1-.45,1.72c-1.86,1.52-6,5.81-7.1,14.18a1.07,1.07,0,0,0,1.1,1.2c3.28-.18,12.16-.4,14.43,2"/><path class="cls-4" d="M1655.25,261c-8.69-5.41-37.14-7-45.36-7.31a25.36,25.36,0,0,0-4.35.2l-25.11,3.27c-15.67,2.81-9.75,23.66-9.75,23.66l47.38,7.24"/><polyline class="cls-4" points="1728.14 249.94 1699.16 254.67 1699.46 315.29 1725.78 307.89"/><polygon class="cls-4" points="1697.76 318.25 1688.89 316.51 1688.89 313.32 1697.76 314.97 1697.76 318.25"/><polygon class="cls-4" points="1686.59 253.78 1686.74 312.92 1699.46 315.29 1699.16 254.67 1686.59 253.78"/><path class="cls-4" d="M1618.58,255.55l3.94,1.58a3.2,3.2,0,0,0,4.38-2.95c0-3.47-.18-7.89-1.37-9.42l7.19-10.95a2.21,2.21,0,0,0-2-3.42c-4,.32-9.43,1-11.24,2.25l-10.82-5a2.25,2.25,0,0,0-3.15,1.64l-1.26,7.05c-3.32,3.11-4.1,9.47-5.73,15.25a2.47,2.47,0,0,0,2.92,3.26l7.37-1.86a7.83,7.83,0,0,1,5.2.48Z"/><polygon class="cls-1" points="1725.52 307.04 1693.61 330.62 1685.27 312.24 1684.5 285.09 1701.35 278.7 1725.52 307.04"/><path class="cls-4" d="M1668,225s-1.77-4.77-9.09-4.44l-14.64-.11a7.17,7.17,0,0,1-1.31-.12l-14-2.61a9.39,9.39,0,0,0-8.91,3.14,14,14,0,0,0-3.21,10.12"/><polygon class="cls-4" points="1603.65 237.18 1566.28 242.55 1565.94 278.59 1575.15 279.25 1575.92 244.66 1601.43 241.18 1603.65 237.18"/><line class="cls-4" x1="1580.8" y1="266.13" x2="1613.63" y2="271.67"/><line class="cls-4" x1="1623.61" y1="273.22" x2="1645.56" y2="277.22"/><path class="cls-4" d="M1649.56,279.88s13.08-2.66,30.82,2.44"/><line class="cls-4" x1="1506.51" y1="286.09" x2="1560.52" y2="282.58"/><line class="cls-4" x1="1566.28" y1="242.55" x2="1575.92" y2="244.66"/><polygon class="cls-4" points="1605.35 309.13 1661.16 298.43 1576.11 283.34 1534.88 295.34 1605.35 309.13"/><polygon class="cls-4" points="1661.16 303.31 1658.69 303.79 1658.98 334.99 1653.1 336.1 1653.14 326.13 1610.1 313.1 1610.84 312.96 1616.65 312.18 1653.15 321.33 1653.2 304.84 1610.84 312.96 1610 313.07 1610.1 313.1 1607.49 313.6 1607.49 343.97 1602.61 343.97 1602.61 336.38 1553.82 325.48 1553.82 332.74 1548.94 332.74 1548.94 298.29 1553.82 299.22 1605.35 309.13 1661.16 298.43 1661.16 303.31"/><polygon class="cls-4" points="1610.84 312.96 1610.1 313.1 1610 313.07 1610.84 312.96"/><rect class="cls-1" x="1538.11" y="310.6" width="91.8" height="42.13"/><polygon class="cls-4" points="1594.79 292.47 1558.11 287.3 1558.11 277.42 1594.79 281.21 1594.79 292.47"/><polygon class="cls-4" points="1601.39 277.88 1564.21 274.05 1558.11 277.42 1594.79 281.21 1601.39 277.88"/><polygon class="cls-4" points="1594.79 281.21 1594.79 292.47 1601.16 288.33 1601.39 277.88 1594.79 281.21"/><path class="cls-4" d="M1332.66,570.3S1396,602,1479.44,557.41"/><polygon class="cls-1" points="1552.67 366.45 1538.46 366.7 1538.46 298.45 1552.5 298.45 1552.67 366.45"/><path class="cls-4" d="M1480.61,373.58s5.63,123.1,13.6,144.43c0,0,5.1,11.26-3.28,17.12,0,0-22.28,20.52-54.4,23.74"/><path class="cls-4" d="M1446.2,261.31l30.78-17.4s6.68-2,9-15.12l2.31-9.18a17,17,0,0,1,6.82-9.8l14.53-10a6.48,6.48,0,0,1,3.69-1.14h6.43a15.29,15.29,0,0,1,7.25,1.82l7.75,4.15,2,.46a4.7,4.7,0,0,1,3.64,4.58v12.2"/><circle class="cls-4" cx="1521.72" cy="213.43" r="14.22"/><circle class="cls-4" cx="1521.96" cy="213.43" r="10.23"/><circle class="cls-5" cx="1521.96" cy="213.51" r="6.36"/><path class="cls-4" d="M1314.6,240l-24.38,15.32s-15,10.94-15,24.23l-.74,22.71a164.34,164.34,0,0,0,3.85,41l18.62,83.53,9.85,51.59s2.78,18.1-1.11,25.26a20.59,20.59,0,0,0-2,5.43c-1.17,5.34-2.13,14.82,2.78,23.39l8.42,14.13a26.88,26.88,0,0,0,13.93,11.53c12.91,4.7,37.91,12.53,65.35,14.36,0,0,25.95,2.5,46.42-17.19,0,0,22.51-19.86,29.08-39.87"/><path class="cls-6" d="M1359.86,437s21.83,2.05,94.18-49.59c13.3-9.5,29.33-17.73,45.64-18.76l109.42-2.34s7.62-.37,11.05-3.16a1.91,1.91,0,0,1,2.33-.09c2,1.41,6.58,2.95,16.08-2.08a1.94,1.94,0,0,1,2.66.82c1.11,2.3,4.84,4.84,17.36-2.06,0,0,10.79-8.67,12.19-13.36"/><polyline class="cls-4" points="1282.95 16.83 1814.25 16.83 1814.25 410.75 1746.43 420.6 1746.43 58.33 1389.01 52"/><polygon class="cls-4" points="1406.13 60.08 1731.03 66.18 1731.03 425.39 1746.43 430.08 1814.25 419.77 2246.73 511.7 2246.73 499.98 1814.25 412.03 1746.43 421.88 1746.43 59.61 1156.5 49.76 1156.5 57.58 1406.13 60.08"/><path class="cls-4" d="M1427.78,256.88s-36.27-30-74.72-34.07l-26.26-1.08a9,9,0,0,0-9.27,7.55l-3.24,19.79s39.39-7.19,66.28,1.56S1427.78,256.88,1427.78,256.88Z"/><path class="cls-4" d="M1402,238v-8.7a7.77,7.77,0,0,1,9.73-7.52l9,2.36a9.15,9.15,0,0,0,11.39-9.94l-.59-5,3.59-7.82s.92-2.1-3.61-3.65a.31.31,0,0,1,.06-.59l5-.6V186.07a9.8,9.8,0,0,0,10.32-5.78l-10.63-19.07s-1.25-8,2.5-15l.43-1a8.14,8.14,0,0,0,.52-5.24c-1.59-6.76-6.19-24-12.68-29.14,0,0,10.79,3.91,13.92-2.19,0,0-7.51,0-11.57-3.59,0,0,8.75-.16,9.07-8.75,0,0-10.48,7.34-31.89-9.23,0,0-52.21-25.16-83.48,12.82"/><path class="cls-4" d="M1317.88,102.29s-19.1,20.44-5.19,59.59a72.06,72.06,0,0,0,7.76,15.44c4.58,6.94,12,18.46,12.91,22.2"/><path class="cls-4" d="M1332.73,204.67s5.16-.46,6.26-5.15c0,0,6.09,2.65,12.66-7.2L1345.71,203s14.38-2.5,18.91-16.72"/><path class="cls-4" d="M1371,182.63s0,8.13-6.41,12.82"/><path class="cls-4" d="M1377.75,173.88a15.31,15.31,0,0,0-1.4,15.16"/><path class="cls-4" d="M1396.36,156.68s-2.4-4.06-6.84-4.22a7.9,7.9,0,0,0-7.64,5.66c-1.94,6.16-4.12,19.34,7.91,29.52,0,0,5.91,4.36,7.87-1"/><path class="cls-4" d="M1385.57,163.72a7.77,7.77,0,0,1,.68-1.45,4.41,4.41,0,0,1,7.2-.6c.89,1.14,1.3,2.78.09,5.1,0,0-5.47,4.84,1.1,10.24"/><path class="cls-4" d="M1424.1,112.13s-.35,20.17-27,10.91"/><path class="cls-4" d="M1400.3,132.53s14.16,7.52,22.16-5"/><path class="cls-4" d="M1420.47,134.77a17.68,17.68,0,0,1-17.94,2.8"/><path class="cls-4" d="M1397.66,154.69s6.86,1.53,7.1,10h5.86s-3.63-13.37,4-19.47"/><line class="cls-4" x1="1433.25" y1="184.67" x2="1433.25" y2="181.46"/><path class="cls-4" d="M1338.74,200.35s2.12,15.13-3.66,21.37"/><path class="cls-4" d="M1398.86,208.82s.05,14.39,4.79,15.63"/><polygon class="cls-1" points="1749.63 289.09 1727.59 304.87 1727.91 265.95 1748.07 254.07 1749.63 289.09"/><path class="cls-7" d="M1439.3,143.59s-11.74,6.76-13,11.34c0,0,10.71-6.41,11.13-5.67Z"/><path class="cls-1" d="M1467.64,388.66s-64.88,187.88-112.24,143.19"/><path class="cls-8" d="M1467.64,388.66c-4.84,16.13-10.67,32-17.1,47.55-3.18,7.8-6.64,15.5-10.2,23.15s-7.43,15.16-11.46,22.59c-8.23,14.73-17.19,29.28-29,41.68a76.3,76.3,0,0,1-9.58,8.54,41.57,41.57,0,0,1-11.39,6.11,25.08,25.08,0,0,1-6.43,1.13,22.2,22.2,0,0,1-3.26-.1c-.54-.06-1.07-.19-1.6-.29a9.33,9.33,0,0,1-1.58-.38l-1.54-.51c-.5-.17-1-.44-1.47-.65a21.27,21.27,0,0,1-2.8-1.56A10.53,10.53,0,0,1,1359,535l-1.25-1c-.8-.7-1.54-1.45-2.31-2.16a25.43,25.43,0,0,0,10.93,5.71,21,21,0,0,0,12-1.13,40.09,40.09,0,0,0,10.44-6.33,80.08,80.08,0,0,0,8.89-8.59,165.26,165.26,0,0,0,15-19.95c4.56-7,8.8-14.19,12.81-21.54s7.86-14.78,11.56-22.3,7.24-15.13,10.75-22.75C1454.63,419.68,1461.24,404.23,1467.64,388.66Z"/><path class="cls-4" d="M1471.23,400.31s-14.07,63.07-12.66,73.39"/><path class="cls-1" d="M1333.36,290.81c-4.68.48-25.74,118.17,1.72,136"/><path class="cls-8" d="M1333.36,290.81c-.35.12-.5.5-.67.81a9.63,9.63,0,0,0-.4,1c-.23.7-.43,1.4-.6,2.11-.37,1.41-.68,2.84-1,4.28q-.84,4.31-1.52,8.65c-.93,5.78-1.69,11.58-2.42,17.39s-1.35,11.62-1.84,17.45-1,11.64-1.27,17.47-.53,11.66-.53,17.49.17,11.64.61,17.43c.23,2.9.58,5.78,1,8.64a71.77,71.77,0,0,0,1.79,8.48,39.93,39.93,0,0,0,3.09,8.06,20.25,20.25,0,0,0,5.43,6.72,18.85,18.85,0,0,1-6.38-6.15,38.26,38.26,0,0,1-4-8,82.25,82.25,0,0,1-4-17.39,159.82,159.82,0,0,1-1.3-17.74c-.11-5.92,0-11.83.33-17.73s.84-11.79,1.5-17.65,1.49-11.71,2.53-17.51,2.18-11.6,3.58-17.33c.73-2.86,1.47-5.72,2.37-8.54.45-1.4.92-2.81,1.45-4.19.28-.68.57-1.37.9-2,.17-.33.35-.66.55-1S1333,290.88,1333.36,290.81Z"/><path class="cls-4" d="M1303.35,287.52s9.17,4.22,35.77-10.78c0,0,32.69-16.41,51-18.29"/><path class="cls-4" d="M1665.59,353.39l10.56-5.17a21.75,21.75,0,0,0,11.38-25.53c-3.12-10.83-9-23.94-20.12-31.82a14.83,14.83,0,0,0-10.12-2.65,16.83,16.83,0,0,0-6.93,1.94,7.16,7.16,0,0,1-6.37.55c-5.28-2-14.12-3.89-18.71,3.38,0,0-9.67,6.52-20.43,1.06a4.27,4.27,0,0,0-1.48-.47c-2-.26-7.33-.74-9.71.9a4.86,4.86,0,0,1-3.11.91l-30.8-2.51a4.73,4.73,0,0,1-2.49-1c-1.91-1.49-6.53-4-12.87-.31,0,0-6.1,2.35-13.13-3.52,0,0-1.48-5.91-13.87-2.5a6.12,6.12,0,0,1-4.21-.38c-9.57-4.48-48.23-22.18-54.71-18.69,0,0-9.44-7.81-30.69-10.71"/><path class="cls-1" d="M1451.07,270.41s-41,48.53,7.4,101.76"/><path class="cls-8" d="M1451.07,270.41a85.74,85.74,0,0,0-6.59,12.21,89.79,89.79,0,0,0-4.69,12.91,76.21,76.21,0,0,0-2.69,26.92c.12,2.26.49,4.49.81,6.73l.68,3.32c.19,1.12.58,2.19.83,3.3.5,2.21,1.32,4.33,2,6.5l1.27,3.17.62,1.59.72,1.55a126.37,126.37,0,0,0,14.44,23.56A84,84,0,0,1,1441.23,350l-.85-1.56-.76-1.61-1.47-3.25c-.81-2.24-1.75-4.43-2.37-6.74s-1.2-4.62-1.72-6.95c-.37-2.36-.79-4.72-.94-7.11a70.55,70.55,0,0,1,.36-14.31,73.62,73.62,0,0,1,9.26-26.73A60,60,0,0,1,1451.07,270.41Z"/><path class="cls-1" d="M1436.53,321.29s48.77-4.54,87.22-33.22"/><path class="cls-8" d="M1436.53,321.29c7.71-1.72,15.29-3.64,22.8-5.79,1.87-.57,3.73-1.14,5.61-1.67l5.57-1.78c1.86-.57,3.69-1.24,5.54-1.86l2.76-.94,2.72-1.05c7.33-2.62,14.47-5.72,21.51-9.05,1.75-.85,3.49-1.72,5.27-2.55l5.16-2.77,2.61-1.35c.84-.5,1.67-1,2.53-1.5,1.69-1,3.4-2,5.14-2.91-1.47,1.3-3,2.57-4.52,3.83-.76.64-1.53,1.25-2.31,1.88l-2.41,1.72-4.9,3.38c-1.69,1-3.41,2-5.12,3-.86.5-1.71,1-2.57,1.5l-2.66,1.35c-1.78.88-3.53,1.82-5.34,2.65-3.63,1.59-7.27,3.18-11,4.54l-2.8,1-2.83.92-2.83.92c-.94.31-1.88.62-2.85.86l-5.74,1.53c-1.93.47-3.86.9-5.8,1.32A122.82,122.82,0,0,1,1436.53,321.29Z"/><path class="cls-1" d="M1555.41,293.85s-36.34,39.16-108.56,52.53"/><path class="cls-8" d="M1555.41,293.85c-6.62,7.83-14.61,14.42-23,20.34a183,183,0,0,1-26.64,15.45c-2.32,1.1-4.71,2.05-7.06,3.08l-3.54,1.53c-1.2.46-2.41.91-3.62,1.34l-7.24,2.61c-2.45.76-4.92,1.49-7.38,2.2l-3.69,1.07c-1.23.36-2.49.62-3.74.91l-7.5,1.67-1.88.4-1.9.3-3.79.58c-2.53.37-5.06.74-7.59,1.05,2.45-.75,4.9-1.45,7.35-2.14l3.68-1,1.84-.5,1.81-.59,7.27-2.3c1.2-.4,2.42-.71,3.62-1.14l3.57-1.29c2.38-.86,4.77-1.71,7.16-2.53l7-2.83,3.52-1.39,3.46-1.54c2.3-1,4.64-2,6.91-3.11l6.81-3.31c2.28-1.09,4.45-2.38,6.7-3.53s4.42-2.43,6.61-3.7l3.28-1.9,3.23-2A203.83,203.83,0,0,0,1555.41,293.85Z"/><path class="cls-1" d="M1594.57,297.84s-43.15,48.3-119.59,57.21"/><path class="cls-8" d="M1594.57,297.84a111.16,111.16,0,0,1-11.73,12.24,169.5,169.5,0,0,1-13.19,10.72c-4.56,3.38-9.34,6.46-14.19,9.4s-9.92,5.54-15,8-10.38,4.63-15.7,6.59l-4,1.42-4,1.31c-2.69.9-5.45,1.6-8.18,2.35a163.49,163.49,0,0,1-33.5,5.15,303.46,303.46,0,0,0,32.64-8.15c5.29-1.78,10.6-3.49,15.76-5.62s10.33-4.21,15.34-6.66,10-4.93,14.85-7.69,9.61-5.66,14.31-8.69A217.37,217.37,0,0,0,1594.57,297.84Z"/><path class="cls-4" d="M1617.08,321.29s-12.66,10.08-9.85,22.27c0,0,5.63,16.42-3.28,18.06"/><path class="cls-4" d="M1625.75,293.85c4-.58,9.56,3.3,14.49,9.73,10.84,14.17,18.81,40.72,1.79,59.35"/><path class="cls-4" d="M1625.75,360.68s25.22-14.3,14.49-57.1"/><path class="cls-5" d="M1532.56,217l263.88-4.19c8.09.59,14.21,2.84,16.92,6.4l4.52,5.91"/><path class="cls-4" d="M1807.2,247.77l4.55-2.23a7.67,7.67,0,0,0,4.61-6.47,10,10,0,0,0-.67-4.42l-2.31-4"/><path class="cls-4" d="M1807.54,254.4h0c4.1-1.63,7.29-5.27,6.36-9.58v-.06"/><path class="cls-4" d="M1822.17,215.83a9.38,9.38,0,0,0,.59-2.32,5.59,5.59,0,0,0-7.4-5.93l-32.51,11.16s-12.84,11.18-16.52,21.18a12.38,12.38,0,0,1-5.4,6.34L1719.3,271a66.14,66.14,0,0,1-14.17,6.32c-11.2,3.5-32,10.54-35.1,15.59"/><path class="cls-4" d="M1813.37,251.53s1.83,4.45-1.93,5.67l-30.37,10.53a39.53,39.53,0,0,0-11.26,5.78L1687.72,334"/><path class="cls-4" d="M1504.06,216.09s.12,11.48,10.78,9.92l12.51-7.27c11.26-5.08,12.11,2.66,12.11,2.66L1519,236.56l0,0a26.79,26.79,0,0,1-18.74,18.05l-5.47,1.45-16.88,14.31"/><path class="cls-4" d="M1317.65,550.43s-5.39,6.27-4.69,52.23"/><path class="cls-4" d="M1489.52,538.41s15.23,35.27,10.13,63.87"/><path class="cls-7" d="M1439,157.58s-6.88-2.42-9.42,4l2.62,3.59S1432.19,162.39,1439,157.58Z"/><polygon class="cls-4" points="1855.07 94.9 1841 346.49 2092.18 374.67 2137.85 379.79 2148.4 79.07 1855.07 94.9"/><polygon class="cls-4" points="2091.19 384.48 2091.94 374.55 1887.76 351.65 1887.76 360.68 2091.19 384.48"/><polygon class="cls-4" points="2086.41 383.92 2109.7 570.91 2099.65 570.13 2072.78 382.32 2086.41 383.92"/><polygon class="cls-4" points="1904.55 362.64 1868.59 529.82 1858.54 529.03 1893.22 361.32 1904.55 362.64"/><polygon class="cls-4" points="2013.58 516.84 2006.56 516.84 2006.56 374.58 2013.58 375.4 2013.58 516.84"/><polyline class="cls-4" points="2069.27 294.31 2072.74 129.95 1931.12 129.95 1926.41 285.88"/><path class="cls-4" d="M2019.3,183.1a1.62,1.62,0,0,1,0,.31,3.42,3.42,0,1,1-6.8,0,1.62,1.62,0,0,1,0-.31"/><line class="cls-4" x1="1952.07" y1="129.95" x2="1952.07" y2="153.71"/><path class="cls-4" d="M1953.63,168.41v6.41a12.69,12.69,0,0,0,7.58,11.61l5.24,2.3"/><polyline class="cls-4" points="1968.95 129.95 1966.6 192.78 1966.45 196.86"/><polyline class="cls-4" points="1949.88 287.52 1926.41 287.52 1926.41 300.97 1895.79 298.78"/><polyline class="cls-4" points="1882.97 297.84 1872.34 297.84 1876.1 190.72 1966.6 192.78"/><rect class="cls-4" x="1888.61" y="191.01" width="20.16" height="6.95"/><rect class="cls-4" x="1883.91" y="197.95" width="29.86" height="4.06"/><polygon class="cls-4" points="1911.28 267.01 1878.52 267.01 1879.05 252.35 1911.82 252.35 1911.28 267.01"/><polygon class="cls-4" points="1911.3 267.01 1878.94 267.01 1878.05 290.69 1910.41 290.69 1911.3 267.01"/><polyline class="cls-4" points="1930.57 226.94 1946.79 226.94 1946.79 287.52 1928.79 287.52"/><rect class="cls-4" x="1955.97" y="244.28" width="5.94" height="22.84"/><rect class="cls-4" x="1961.91" y="241.88" width="8.75" height="26.11" transform="translate(3932.58 509.86) rotate(180)"/><rect class="cls-4" x="2004.43" y="241.88" width="37.99" height="24.07"/><rect class="cls-4" x="2042.42" y="249.65" width="11.49" height="11.49" transform="translate(4096.33 510.79) rotate(180)"/><rect class="cls-4" x="1996.42" y="246.02" width="8.01" height="13.78" transform="translate(4000.86 505.82) rotate(180)"/><rect class="cls-4" x="2014.44" y="231.56" width="5.49" height="3.69" transform="translate(4034.36 466.81) rotate(180)"/><rect class="cls-4" x="2028.66" y="231.56" width="5.49" height="3.69" transform="translate(4062.81 466.81) rotate(180)"/><rect class="cls-4" x="2028.66" y="272.57" width="5.49" height="3.69" transform="translate(4062.81 548.84) rotate(180)"/><rect class="cls-4" x="2012.25" y="272.57" width="5.49" height="3.69" transform="translate(4029.99 548.84) rotate(180)"/><rect class="cls-4" x="2012.52" y="129.95" width="19.52" height="19.52"/><rect class="cls-4" x="2036.91" y="129.95" width="7.62" height="19.52"/><rect class="cls-4" x="2046.29" y="129.95" width="14.18" height="19.52"/><polyline class="cls-4" points="2006.56 347.55 1993.12 346.2 1993.41 321.29 1942.77 317.3 1940.19 341.92 1949.88 342.39"/><line class="cls-4" x1="1953" y1="342.62" x2="1966.91" y2="343.48"/><line class="cls-4" x1="1972.08" y1="344.89" x2="1983.8" y2="345.48"/><line class="cls-4" x1="1983.17" y1="291.3" x2="2016.56" y2="292.71"/><line class="cls-4" x1="2023.39" y1="293.7" x2="2045.46" y2="294.06"/><line class="cls-4" x1="2047.62" y1="293.95" x2="2069.7" y2="294.31"/><line class="cls-4" x1="1858.59" y1="105.26" x2="2140.9" y2="92.12"/><path class="cls-4" d="M2072.74,183.1v24.7h-80.35V183.1h20.15a1.62,1.62,0,0,0,0,.31,3.42,3.42,0,1,0,6.8,0,1.62,1.62,0,0,0,0-.31Z"/><path class="cls-4" d="M1796.92,223.51l22.22-7.29a5.6,5.6,0,0,1,7.09,2.76h0a5.6,5.6,0,0,1-1.52,6.81l-19,11.55"/><path class="cls-3" d="M641.81,211.59,645,199.33a10.43,10.43,0,0,0-10.1-13H605.44s-16.41-3-17.3,1.33c0,0-11.24,29.13-9,36.67l54.41,6.95,8.28-19.07"/><polygon class="cls-3" points="226.93 544.63 226.93 544.68 214.8 539.97 226.93 544.63"/><polyline class="cls-3" points="595.98 485.86 736.44 529.62 535.95 606.51 334.27 530.51 377.15 516.91"/><polyline class="cls-3" points="413.15 524.3 385.43 532.95 528.92 584.63 677.52 529.84 567.07 494.8"/><polyline class="cls-3" points="477.4 509.81 488.93 505.67 526.34 518.68 495.43 530.95"/><polygon class="cls-3" points="441.76 475.95 490.33 523.63 484.35 529.62 433.78 482.38 441.76 475.95"/><path class="cls-3" d="M425.2,464.64l13.46,13.09-4.88,4.65-14-11.73a4,4,0,0,1,.13-6.31h0A4,4,0,0,1,425.2,464.64Z"/><polygon class="cls-3" points="426.28 465.6 420.11 470.92 433.78 482.38 438.66 477.73 426.28 465.6"/><path class="cls-3" d="M341.81,223.71s-8.2-8.41-13.35-1.47a10.61,10.61,0,0,0-1.76,8.4c1.4,7,5.81,22.34,17.48,21.31,0,0-.89,11.39,11.38,21.44l31.2,16.71s15.08,5.62,20.85-6.07c0,0,7-15.17,8.62-23.66a4.79,4.79,0,0,1,1.69-2.8l2.15-1.76a4.17,4.17,0,0,0,1.33-4.47L417,237.24a16.2,16.2,0,0,1,1.37-12.86l1.12-2a12.42,12.42,0,0,1,3.91-4.18l1.88-1.23a5.11,5.11,0,0,0,2.26-4.84l-2.6-23.06a7.68,7.68,0,0,0-6.51-5.91s12.05,5.43,15.71-2c0,0-12.75,1.11-13.53-1.11,0,0,12.2.34,14.2-8.2l-16.19,5.76"/><path class="cls-3" d="M361.14,218s-8.64,2.66-6.76,19.63c0,0-7-1.56-9.31-13.2,0,0,4.21,4.88,5.32,2.66"/><path class="cls-3" d="M345.84,204.6s6.54,7.21,15,6.43"/><path class="cls-3" d="M345.18,199.39a20,20,0,0,0,20.18,7"/><path class="cls-3" d="M352.38,191.85S366,206.26,384,195.73"/><path class="cls-3" d="M364.47,194.4s15.75,2.77,23.29-4.88"/><path class="cls-3" d="M414.59,177.43s-11.42-6.76-20.73,6.88"/><path class="cls-3" d="M430.12,173.33l-6.31-8.26a24.88,24.88,0,0,0-8.21-6.95L398.4,149"/><path class="cls-3" d="M412,155.7S404.5,138,372,136.92c0,0-25.72.15-38.88,13.45"/><path class="cls-3" d="M326,156s-24.39,19.37-13.9,50.72a97.32,97.32,0,0,0,14.49,26.61s4.44,18.93-2.21,23.07"/><path class="cls-3" d="M339.15,229.33s-3.51-6-7.16-2.65a6.1,6.1,0,0,0-1.89,4.26,7.4,7.4,0,0,0,2.1,5.78"/><path class="cls-8" d="M339.7,235.16l.5-.39a1.85,1.85,0,0,0,.19-2.78h0a1.86,1.86,0,0,0-2.75.14L336.15,234a3.62,3.62,0,0,0,.24,4.84l3.85,3.86a1.18,1.18,0,0,0,1.62.07h0a1.2,1.2,0,0,0,.19-1.62l-2.68-3.64A1.66,1.66,0,0,1,339.7,235.16Z"/><path class="cls-8" d="M385.89,235.87s2.64,6.93,7.86-.44l1.66-.22v-1.33l-11.31,1.55.11.61Z"/><path class="cls-3" d="M406.65,258.75s.88-1.48,5.69-.81c0,0,1.63-1-.3-2.22,0,0-5.39-.22-6.43,1.63C405.61,257.35,404.6,258.81,406.65,258.75Z"/><path class="cls-3" d="M382.77,288.62S367.69,301,367.69,311.68"/><path class="cls-3" d="M326.29,240.71s-6.21-1.77-15.67,12.42l-54.88,20.08a67.75,67.75,0,0,0-44.38,60.4,376.18,376.18,0,0,0,11.39,111.8,13.64,13.64,0,0,1,.15,6c-.78,4-.58,11.87,10.35,18.58a1.35,1.35,0,0,1,.64,1.33c-.62,4.63-2.31,26.22,19.9,26.91a5.31,5.31,0,0,1,2.89,1l6.92,4.9a14.73,14.73,0,0,0,12.71,1.38l8.87-3.69"/><path class="cls-3" d="M280.9,374.52c8-87.82-47.47-80.87-47.47-80.87"/><path class="cls-3" d="M286.07,393s7.39-9.75-2.07-16c-35.51-23.31-44.36-34.6-44.36-34.6"/><path class="cls-3" d="M245.85,369.94l30.17,16s11.23,6.8,10.94,15.67c0,0,3.59,15.09,7.11,19.62a9.85,9.85,0,0,1,2.24,6.53,20.19,20.19,0,0,1-3.39,8.68"/><path class="cls-3" d="M251.77,465.16s4.14-22.48,33.41-27.8c0,0,13.31-4.43,16,7.39"/><path class="cls-8" d="M254.13,445.94a24.53,24.53,0,0,1,7.28-7.63,29.54,29.54,0,0,1,9.71-4.44c.86-.25,1.76-.34,2.63-.51l1.33-.23,1.33-.09c.9,0,1.79-.11,2.68-.11s1.78.1,2.66.16l1.33.11,1.3.23,2.6.51c1.7.46,3.37,1.05,5,1.65-1.76-.17-3.46-.5-5.18-.68l-2.57-.17-1.28-.11-1.28,0-2.56,0c-.84.05-1.69.17-2.53.25l-1.26.11-1.25.25c-.82.18-1.66.27-2.47.52l-2.44.68c-.8.28-1.57.61-2.37.89a39.16,39.16,0,0,0-4.55,2.24A36.4,36.4,0,0,0,254.13,445.94Z"/><path class="cls-3" d="M340.47,552.34l-3,.35c-21,7.29-13.51,28.7-13.31,29.27l-97.28-37.33L214.8,540c-3.4-18.61,5-25,10.76-27.23.48-.19.94-.34,1.37-.47l.53-.15a15.32,15.32,0,0,1,3-.53l93.89,34.71Z"/><path class="cls-3" d="M342.45,553.09l-17.61,29.62-97.91-38L214.8,540l12.13,4.66L324.21,582c-.2-.57-7.69-22,13.31-29.27l3-.35Z"/><path class="cls-1" d="M244.38,438.84s12.71-16.86,44.35-9.46"/><path class="cls-8" d="M244.38,438.84a25.76,25.76,0,0,1,9.11-7.77A38.17,38.17,0,0,1,265,427.21l3-.39c1-.11,2-.12,3-.16a46.68,46.68,0,0,1,6,.2c2,.17,4,.59,5.94.9,1.94.5,3.87,1,5.76,1.62-2-.16-4-.42-5.91-.64l-2.95-.18c-1,0-1.95-.2-2.94-.14-1.95.05-3.91-.11-5.85.13-1,.08-1.94.09-2.91.21l-2.88.42a46.39,46.39,0,0,0-11.11,3.29A34.79,34.79,0,0,0,244.38,438.84Z"/><path class="cls-1" d="M238.76,490.59s-13.28-11.34,2.53-42"/><path class="cls-8" d="M238.76,490.59a13.32,13.32,0,0,1-3.53-4.41,7.65,7.65,0,0,1-.62-1.29l-.56-1.32c-.27-.92-.59-1.83-.78-2.77a27.37,27.37,0,0,1-.47-2.83c-.06-1-.17-1.91-.19-2.86l.09-2.87c.05-.95.23-1.89.33-2.83l.21-1.41c.09-.47.21-.93.31-1.39l.66-2.76c.26-.91.6-1.8.89-2.69s.58-1.8,1-2.66c.77-1.72,1.51-3.45,2.37-5.11s1.85-3.26,2.85-4.84c-.61,1.78-1.28,3.51-1.95,5.24s-1.18,3.51-1.81,5.24-1,3.53-1.49,5.3l-.57,2.68c-.1.44-.21.89-.29,1.34L235,469.7a35.71,35.71,0,0,0-.21,10.82c.09.9.35,1.77.5,2.67l.38,1.3a9.76,9.76,0,0,0,.43,1.29A16.44,16.44,0,0,0,238.76,490.59Z"/><path class="cls-3" d="M270.69,500.64s-6.69-24.33,11.84-37.57c6.51-4.65,14.86-8.71,22.84-8,2.86.27,6.34,2.75,11.16,3.26,1.77-5.62-19.22-16.71-23.36-15.38"/><path class="cls-3" d="M307.81,258.16s-3.55,35.49,16.85,60.33c0,0,10.65-11.54,18.19-9.32"/><path class="cls-3" d="M335.45,311.09s17.9,23.51,27.36,25.14l-13.75-26.62c-42.14-43-25.29-61.21-25.29-61.21"/><path class="cls-3" d="M378.63,291.58s7.69,13.89-14.79,47.9c0,0-1.18,84.57-9.16,101.73"/><ellipse class="cls-3" cx="368.06" cy="395.89" rx="2.96" ry="4.14"/><ellipse class="cls-3" cx="368.06" cy="347.98" rx="2.96" ry="4.14"/><ellipse class="cls-3" cx="344.33" cy="316.67" rx="2.35" ry="3.29"/><path class="cls-3" d="M390.42,267.25s11.2,5.33,19,.11"/><path class="cls-8" d="M374.93,228.59s16.27-4.44,25.88-2.51c0,0,4,.1,2.58-2a3.41,3.41,0,0,0-2.82-1.43C395.89,222.63,380.89,223,374.93,228.59Z"/><path class="cls-3" d="M477.14,245.41H466.82l-3.43-27.28c4.94,2,11.31,2,15.3,0Z"/><path class="cls-3" d="M392.67,291.58s4.59,16.26,2.37,26.17c0,0-5.77-7.69-8-7.84,0,0-2.67.44-2.52,6.36l-.29,3.25-20.41,20"/><path class="cls-3" d="M383.8,320.11s-9.9,23.21-8.72,32.09"/><path class="cls-9" d="M280,313.72s11.79,28.09,1.37,61.25"/><path class="cls-3" d="M226.93,509.26a18.18,18.18,0,0,0-17.54,18A17.82,17.82,0,0,0,214.67,540c-7.2-.23-2.23,4.74-2.23,4.74l143.42,53.82,5.32-39.63Zm97.91,73.45-97.91-38L214.8,540c-3.4-18.61,5-25,10.76-27.23.48-.19.94-.34,1.37-.47l.53-.15a15.32,15.32,0,0,1,3-.53l93.89,34.71,16.3,6-.2,0,2,.75Z"/><path class="cls-3" d="M427.51,213.44s-2.77,9.07-3.93,12.71"/><path class="cls-8" d="M426.23,228.37h-.44a8.9,8.9,0,0,0-2.93.7,2.06,2.06,0,0,1,.12.7,2.52,2.52,0,0,1-5,0,2.1,2.1,0,0,1,.62-1.49h0c.91-3.68,7.51-1.68,7.51-1.68Z"/><path class="cls-3" d="M422.76,228.59s2.37,14.38-2.07,18.48"/><path class="cls-3" d="M316.53,458.36l43.17,14.49s22.62,4.43,31.5,0c0,0,23.28-6.88,29.27-1.11l23.29,10.2L469.49,503s2.49,7.3-4.85,7.24a6.06,6.06,0,0,1-3-.88L440.88,497l-22.4-9.76,27,12.87c2.89,10.64-8.42,12.19-8.42,12.19l-24.62-12.19,23.51,12c.22,8.65-9.76,7.1-9.76,7.1l-19.52-7.1,19.52,7.1a2.31,2.31,0,0,1-1.11,2.22c-2.47,1.9-22.06.38-27.6-.1a17.23,17.23,0,0,0-2-.08c-7.73.29-26.7-10.25-26.7-10.25l-4.07-1.92s-69.34,2.51-95.22-14.05"/><path class="cls-3" d="M371.68,482.16s-6.65,7.76-6.21,12.42"/><path class="cls-3" d="M434.22,301.19s-6.65,106.23-27.94,128.19"/><path class="cls-3" d="M318.89,458.43l18.19-13.53S376.34,444,435.33,421c0,0,32.38-12.42,34.82,33.71l-73.63,9.09s-4.88,11.31-16.86,10.87"/><line class="cls-3" x1="356.82" y1="467.3" x2="353.71" y2="470.41"/><line class="cls-3" x1="349.72" y1="459.1" x2="340.85" y2="465.97"/><line class="cls-3" x1="338.86" y1="452.89" x2="328.43" y2="462.2"/><path class="cls-3" d="M426.24,424.5s-.22-9.1,26.39-15.31c0,0,31.27-2.88,38.81,22.85,0,0,13.42,21.73-9.22,19.67-.87-.08-1.28,1.55-1.67.77h0a.65.65,0,0,0-1.12-.1c-1.62,2.23-6.42,5.49-9.28,2.28"/><path class="cls-3" d="M490.55,398.55S462.5,391.23,438,413.63c0,0,27.61-19.3,50-9"/><path class="cls-3" d="M419.73,260.23s23.36,1.77,30.16,21.88L493.4,395a18.13,18.13,0,0,0,3.65,5.84l1.51,1.62a14.69,14.69,0,0,1,3.73,7.53c1.65,9.47,4.14,30.86-6.63,31.81"/><path class="cls-3" d="M445.75,281.82s2.67,38.44-14.49,55.89"/><path class="cls-3" d="M470.3,336.52s3.84,47-25.43,60.92"/><path class="cls-3" d="M444.28,346.28s-8.88,30.16-19.22,32.23"/><line class="cls-3" x1="438.66" y1="411.63" x2="423.28" y2="382.36"/><line class="cls-3" x1="213.77" y1="406.75" x2="209.33" y2="490.59"/><line class="cls-3" x1="122.84" y1="504.34" x2="233.29" y2="484.82"/><path class="cls-3" d="M211.11,377.48s-75.85,2.22-71.42,27.5l14.2,92.26"/><line class="cls-3" x1="146.35" y1="401.88" x2="160.99" y2="491.48"/><path class="cls-3" d="M464.27,499.13h0a6,6,0,0,0-.26,9.18l2,1.8s5.21-.67,3.44-7.1Z"/><polygon class="cls-3" points="494.99 535.39 490.33 523.63 484.35 529.62 494.99 535.39"/><path class="cls-3" d="M677.3,197.54s-29.18-2.33-32.18,39.37a9.88,9.88,0,0,0,0,1.72c.48,4.53,2.9,25.67,7.9,37"/><path class="cls-3" d="M854.72,504.78l-13.6-76.29s-9.46-56.19-3.55-83.1c0,0,.3-29.86-35.19-41.39,0,0-21.29-8-27.8-55.6,0,0-10.05-98.47-94-64.46,0,0-34.42,11.79-35.4,54.69,0,0,6.37,45.14-1.23,60.13a19.39,19.39,0,0,0-2,8.5,32.85,32.85,0,0,0,10.85,24.83"/><path class="cls-3" d="M656.89,291.21s-6.65,18.63,1.78,33"/><path class="cls-3" d="M648.24,306.73A21.09,21.09,0,0,0,652,324.25"/><path class="cls-3" d="M672.86,212.25s-16-.22-17.3,12.86l-1.33,21.07,6.88,12s-2.44,17.52,2.88,24.62l10.87,18.63s.88,13.75,10.86,11.75,35.71-5.32,35.71-5.32l13.75-27.95"/><path class="cls-1" d="M655.34,246.48s5.47.81,8.06,5.1"/><path class="cls-8" d="M655.34,246.48a5.58,5.58,0,0,1,2.63-.07,7.32,7.32,0,0,1,2.45.94,6.79,6.79,0,0,1,2,1.76,4.94,4.94,0,0,1,1,2.47c-.81-.46-1.42-.93-2.09-1.33s-1.27-.81-1.92-1.19C658.1,248.27,656.78,247.55,655.34,246.48Z"/><path class="cls-3" d="M664.88,253.72s6.65,9.54-1.48,21.67l-2.31,3.55a3.16,3.16,0,0,0,.46,4,10.09,10.09,0,0,0,8,3.11"/><path class="cls-3" d="M673.64,292.65s10.09,5.1,17.63-2.33"/><path class="cls-3" d="M676.41,299.41s3.21,1.22,4.77.33"/><path class="cls-3" d="M671,282.67a15.55,15.55,0,0,0,4.43.22"/><path class="cls-8" d="M680.37,248.14h0a1.29,1.29,0,0,0,.65,2.39h1.52a.72.72,0,0,0,.29,0c1.15-.25,9.17-2,13.91-.31a13.71,13.71,0,0,0,3.7.72h0s-5.2-6.3-19.68-2.94A1.34,1.34,0,0,0,680.37,248.14Z"/><path class="cls-8" d="M693.16,260.71a2.42,2.42,0,0,1,.36,1.28,2.93,2.93,0,0,1-5.83,0,2.53,2.53,0,0,1,.39-1.33h-.42l-5.37-.23a2.49,2.49,0,0,1,1.52-1.59,5.58,5.58,0,0,1,2-.52c10.46-.79,13.43,2.44,13.43,2.44Z"/><polyline class="cls-4" points="648.32 212.92 619.34 217.65 619.63 278.27 645.95 270.88"/><path class="cls-3" d="M717.51,307l-4-12.05a4.21,4.21,0,0,0-7-1.66,14.61,14.61,0,0,0-4.27,12.38s.15,1.78,1.63,1.78c6.4,0,4-7.54,4-7.54"/><path class="cls-3" d="M726.24,307.4,724,291.91s-4.26-7-11.06,1l4.43,13.45"/><path class="cls-3" d="M684.61,423.39s-5.32.89-3.1,6.65l20.63,52.79s6,15.3,23.73,10.64c0,0,46.57-16.63,63.65-43.25,0,0,47.31-65.27,48.05-104.83"/><path class="cls-3" d="M811.25,322s-32.38,7.54-41.25,49.9"/><path class="cls-3" d="M800.16,354.64s-43.47,16.63-38.81,34.59"/><path class="cls-3" d="M807.93,374.82s-45,4-55.67,25.95l-17.52,25.5s20,4.22,24.62,23.73"/><path class="cls-3" d="M772,343.32s-10.2,20.85-6,31.05"/><path class="cls-3" d="M741.83,281s-9.31,62.55,41.7,33.94"/><path class="cls-3" d="M760,264.59s5.1,7.54-.44,33.93,16.85,16.86,16.85,16.86"/><path class="cls-3" d="M754.7,322.48s-4.66,26.83-38.37,43.24l-8.43-4.87"/><path class="cls-3" d="M664.65,346.43s-6.21,22.84,10.87,32.16"/><path class="cls-3" d="M656,327.58a41.43,41.43,0,0,1-3.77,25.06S631.39,389,668.87,383.69"/><path class="cls-3" d="M657.11,356.41s-7.31,16.41-.66,20.63"/><path class="cls-3" d="M643.36,320.48S602.78,392.34,604.77,399a23.35,23.35,0,0,0-8.87,11.31l-28.61,34.82L526.1,471.79a11,11,0,0,0-5,8.66l-1.5,13.47a6.68,6.68,0,0,0,2.87,6.25l8.07,6.09"/><line class="cls-3" x1="525.37" y1="478.39" x2="524.27" y2="501.23"/><line class="cls-3" x1="532.47" y1="476.62" x2="530.03" y2="497.46"/><path class="cls-3" d="M543.56,475.06l-13.31,31.5-.66,3.77-2.1,8.4a2.06,2.06,0,0,0,1.73,2.55h0a2,2,0,0,0,1.76-.62,31.45,31.45,0,0,0,5.34-6.56c5.95-9.42,15.72-26.1,23.19-32.72a.71.71,0,0,1,1.15.77L558,489.7,552.34,496a6.65,6.65,0,0,0-.73,7.82h0a3.88,3.88,0,0,0,6.31.48l12.55-15.16a9,9,0,0,0,1.57-2.79l1.69-4.81a12.35,12.35,0,0,0,.64-5.19l-1.09-12.19"/><path class="cls-3" d="M574.54,474.77l23.8-2.22s21.59-6.95,25.43-17.89a25.54,25.54,0,0,0,1.34-8.56A2.09,2.09,0,0,1,626.7,444l1-.26a5.08,5.08,0,0,0,3.69-3.78l2.11-9.11,26.76-43.18s5.77,1.48,11.68,39c0,0,3.26,17.74,16.27,23.65"/><path class="cls-3" d="M603.07,428.05a29.42,29.42,0,0,1,17.45,20"/><path class="cls-3" d="M594.64,434.11s21.59,4.43,20,22.18"/><path class="cls-3" d="M604.4,412.52s21,7.84,23.07,24.1"/><path class="cls-3" d="M637.67,413s-28.09-4.73-34.3-13"/><path class="cls-3" d="M605.44,421.69s-12-4.88-21.88,3.84"/><path class="cls-3" d="M567.29,445.12s29.42-7.91,36.37,14.12c0,0,2.52,9.76-7.39,13.16"/><path class="cls-3" d="M722.1,429.82s-16.64,18.85-33.27,17.08"/><path class="cls-3" d="M735.85,431.59s17.07,5.33,9.09,35.05"/><path class="cls-3" d="M824.12,391a218.54,218.54,0,0,0-5.77,57.66"/><path class="cls-3" d="M823.67,456.88,817.35,467c-5.24,4-10.66,0-17.5,2.14a26.24,26.24,0,0,1-14.16.64l-6.6-1.63"/><path class="cls-3" d="M837,375.71s35.93,1.33,63.43,14.19c0,0,13.75,2.66,11.09,17.3L895.09,513.65"/><line class="cls-3" x1="906.62" y1="404.09" x2="889.32" y2="513.65"/><line class="cls-3" x1="1001.54" y1="540.27" x2="755.36" y2="479.94"/><line class="cls-3" x1="628.06" y1="448.89" x2="693.26" y2="465.31"/><line class="cls-3" x1="568.18" y1="439.14" x2="495.88" y2="448.45"/><path class="cls-8" d="M655.27,256.83s6.8-2.37,10.79.89l-.89,1s-1.92,4.73-6.21.59A3.79,3.79,0,0,1,655.27,256.83Z"/><path class="cls-1" d="M671.64,193.29s10.42-4.44,14.19-3.55"/><path class="cls-8" d="M671.64,193.29a34.47,34.47,0,0,1,6.84-2.86,26.47,26.47,0,0,1,3.63-.82,8.48,8.48,0,0,1,3.72.13,12.58,12.58,0,0,0-3.61.44c-1.18.29-2.36.61-3.53,1C676.35,191.85,674,192.62,671.64,193.29Z"/><path class="cls-1" d="M679.18,190.63s5.21.44,4.22,2.55"/><path class="cls-8" d="M679.18,190.63a5.44,5.44,0,0,1,2.88.23,3.18,3.18,0,0,1,1.3.82c.08.12.16.23.23.36a1.58,1.58,0,0,1,.09.42,1.67,1.67,0,0,1-.08.4,2.49,2.49,0,0,1-.2.32,1,1,0,0,0-.45-1.08,4.7,4.7,0,0,0-1.15-.54C681,191.25,680.08,191,679.18,190.63Z"/><path class="cls-3" d="M774,244.26s8,30.46,31,46.43c0,0,7.69,6.21,7.69,13"/><polyline class="cls-3" points="520.27 482.61 489.22 473.44 452.26 486.74"/><line class="cls-3" x1="396.52" y1="507.3" x2="399.62" y2="510.11"/><line class="cls-3" x1="397.85" y1="494.58" x2="403.02" y2="497.24"/><line class="cls-3" x1="402.43" y1="484.82" x2="408.2" y2="484.38"/><line class="cls-3" x1="408.35" y1="478.32" x2="411.45" y2="478.46"/><path class="cls-3" d="M475.33,197.84s-.89-9.17,10.64-4C486,193.84,481.09,202.71,475.33,197.84Z"/><path class="cls-3" d="M465.87,204.75s.88-9.17-10.65-4C455.22,200.76,460.1,209.63,465.87,204.75Z"/><path class="cls-3" d="M460.6,191.94s.89-9.17-10.65-4C450,188,454.83,196.82,460.6,191.94Z"/><path class="cls-3" d="M474.81,197.17s-6.32,3.55-4,21.73"/><path class="cls-3" d="M460.6,191.94S472,194,471,202.05"/><path class="cls-3" d="M465.87,204.75s3.84-1.7,4.39,6.84"/><path class="cls-3" d="M481.83,183.35s-7.8,1.4-9.13,11.16"/><path class="cls-3" d="M463.94,174.44s11.31,2.55,9.32,16.3"/><line class="cls-3" x1="275.43" y1="79.85" x2="494.99" y2="79.85"/><polyline class="cls-3" points="338.86 47.91 500.31 47.91 500.31 196.95"/><line class="cls-3" x1="503.42" y1="51.9" x2="506.08" y2="194.73"/><polyline class="cls-3" points="598.34 26.62 510.51 51.02 510.96 193.4"/><polyline class="cls-3" points="715.44 35.93 516.28 81.18 518.06 193.4"/><line class="cls-3" x1="522.94" y1="80.29" x2="523.82" y2="190.29"/><line class="cls-3" x1="527.81" y1="79.4" x2="527.81" y2="186.3"/><rect class="cls-3" x="574.83" y="135.29" width="16.41" height="37.26"/><rect class="cls-3" x="579.27" y="92.71" width="16.41" height="37.26"/><rect class="cls-3" x="605.44" y="106.46" width="16.41" height="37.26"/><polygon class="cls-3" points="684.84 157.03 642.25 154.81 642.25 107.35 684.84 103.8 684.84 157.03"/><polygon class="cls-3" points="684.84 157.03 716.92 158.8 716.92 100.84 684.84 103.8 684.84 157.03"/><polygon class="cls-3" points="617.93 281.23 609.06 279.49 609.06 276.3 617.93 277.95 617.93 281.23"/><path class="cls-3" d="M590.65,223.41s-27.2.45-36.81,4.44c0,0-16.71-.89-16.41,11.24,0,0-1.19,11.09,3.25,12.56l56,10.5s6.66,2.81,9.76-.88l.45-35.93Z"/><path class="cls-3" d="M630.17,213.08l4.75-9.14a1.92,1.92,0,0,0-1.89-2.86l-12.66,1.49-5.09.55a4.91,4.91,0,0,1-3.16-.75l-7.22-4.7a3.39,3.39,0,0,0-4.78,1.15c-1.41,2.48-2.78,6.26-1.34,10.23a1.55,1.55,0,0,1-.45,1.72c-1.85,1.53-6,5.81-7.1,14.18a1.07,1.07,0,0,0,1.1,1.2c3.29-.18,12.16-.4,14.44,2"/><path class="cls-3" d="M575.42,224c-8.69-5.42-37.13-7-45.36-7.32a25.19,25.19,0,0,0-4.34.2l-25.11,3.27c-15.67,2.81-9.76,23.66-9.76,23.66l47.39,7.24"/><path class="cls-3" d="M538.76,218.54l3.93,1.57a3.19,3.19,0,0,0,4.38-3c0-3.47-.17-7.89-1.37-9.42l7.2-11a2.22,2.22,0,0,0-2-3.42c-4,.32-9.43,1-11.24,2.25l-10.82-5a2.24,2.24,0,0,0-3.14,1.64l-1.27,7.05c-3.31,3.11-4.1,9.47-5.73,15.25a2.47,2.47,0,0,0,2.92,3.26L529,216a7.86,7.86,0,0,1,5.21.48Z"/><path class="cls-3" d="M588.14,188s-1.77-4.77-9.09-4.44l-14.65-.11a7.07,7.07,0,0,1-1.3-.12l-14-2.61a9.38,9.38,0,0,0-8.9,3.14A14,14,0,0,0,537,194"/><polygon class="cls-3" points="523.82 200.16 486.45 205.53 486.12 241.57 495.32 242.24 496.1 207.64 521.61 204.16 523.82 200.16"/><line class="cls-3" x1="500.98" y1="229.11" x2="533.8" y2="234.65"/><line class="cls-3" x1="543.78" y1="236.2" x2="565.74" y2="240.2"/><path class="cls-3" d="M569.73,242.86s13.09-2.66,30.83,2.44"/><line class="cls-3" x1="426.68" y1="249.07" x2="467.27" y2="244.63"/><line class="cls-3" x1="486.45" y1="205.53" x2="496.1" y2="207.64"/><polyline class="cls-3" points="606.03 275.02 490.7 251.95 490.85 243.82"/><polygon class="cls-3" points="473.99 262.2 473.99 262.2 469.12 261.27 473.99 262.2"/><polygon class="cls-4" points="525.53 272.12 581.34 261.41 496.29 246.32 455.05 258.32 525.53 272.12"/><polygon class="cls-3" points="581.34 266.3 578.86 266.77 579.16 297.97 573.28 299.08 573.31 289.11 530.27 276.08 531.02 275.94 536.83 275.17 573.32 284.31 573.37 267.82 531.02 275.94 530.18 276.05 530.27 276.08 527.67 276.58 527.67 306.95 522.78 306.95 522.78 299.37 473.99 288.45 473.99 295.72 469.12 295.72 469.12 261.27 473.99 262.2 525.53 272.12 581.34 261.41 581.34 266.3"/><polygon class="cls-4" points="606.77 216.76 606.92 275.9 619.63 278.27 619.34 217.65 606.77 216.76"/><polygon class="cls-4" points="606.77 216.76 640.7 211.7 649.35 213.14 619.34 217.65 606.77 216.76"/><polygon class="cls-3" points="531.02 275.94 530.27 276.08 530.18 276.05 531.02 275.94"/><polygon class="cls-4" points="514.96 255.45 478.28 250.28 478.28 240.4 514.96 244.19 514.96 255.45"/><polygon class="cls-4" points="521.56 240.87 484.38 237.03 478.28 240.4 514.96 244.19 521.56 240.87"/><polygon class="cls-4" points="514.96 244.19 514.96 255.45 521.33 251.32 521.56 240.87 514.96 244.19"/><polyline class="cls-3" points="532.32 581.59 509.41 571.76 517.83 569.1 498.98 562 536.91 548.92 575.05 563.78 541.34 577.31"/><line class="cls-3" x1="532.32" y1="581.59" x2="509.41" y2="571.76"/><polyline class="cls-3" points="619.26 548.92 596.35 539.09 604.77 536.42 585.92 529.33 623.85 516.24 661.99 531.1 628.28 544.63"/><polyline class="cls-3" points="420.92 542.93 398.51 535.06 425.06 526.96 464.53 543.23 468.67 541.89 483.61 547.66 508.74 557.42"/><line class="cls-3" x1="427.27" y1="525.78" x2="463.65" y2="514.25"/><path class="cls-3" d="M529.37,512s5.47-.29,5.25,4.59"/><path class="cls-3" d="M552.21,504.12s4.88-7.69,9.17-4.14"/><polyline class="cls-3" points="541.12 507.67 551.99 512.32 535.58 517.42"/><line class="cls-3" x1="554.21" y1="512.32" x2="593.24" y2="525.19"/><polyline class="cls-3" points="560.2 510.11 581.26 502.34 598.34 509.66 576.83 516.98"/><polyline class="cls-3" points="516.06 523.63 560.86 540.05 543.34 547.14 584.81 562.45"/><line class="cls-3" x1="565.52" y1="538.72" x2="573.72" y2="535.39"/><line class="cls-3" x1="469.26" y1="481.72" x2="517.61" y2="497.91"/><line class="cls-3" x1="484.57" y1="503.23" x2="517.61" y2="490.81"/><line class="cls-3" x1="477.47" y1="484.38" x2="458.4" y2="491.7"/><polyline class="cls-3" points="742.06 169 742.06 73.19 1023.28 73.19 1023.28 355.3 855.17 355.3"/><polyline class="cls-3" points="870.02 149.71 813.25 113.56 762.68 145.5 777.76 141.5 777.99 216.91"/><rect class="cls-3" x="789.52" y="185.86" width="57.66" height="39.48"/><rect class="cls-3" x="789.52" y="185.86" width="57.66" height="4.66"/><rect class="cls-3" x="789.52" y="185.86" width="15.97" height="39.77"/><rect class="cls-3" x="805.49" y="185.86" width="28.68" height="39.77"/><rect class="cls-3" x="793.86" y="141.65" width="43.94" height="30.08"/><rect class="cls-3" x="793.86" y="141.65" width="43.94" height="3.55"/><rect class="cls-3" x="793.86" y="141.65" width="12.17" height="30.31"/><rect class="cls-3" x="806.03" y="141.65" width="21.86" height="30.31"/><rect class="cls-3" x="785.23" y="171.96" width="63.73" height="3.99"/><rect class="cls-3" x="785.23" y="227.55" width="212.1" height="3.99"/><polyline class="cls-3" points="850.51 134.85 929.46 134.85 932.57 147.05"/><polyline class="cls-3" points="860.71 148.6 864.92 151.04 937.23 150.15"/><polyline class="cls-3" points="930.79 150.15 931.02 175.88 854.5 175.66 854.5 143.72"/><polyline class="cls-3" points="854.5 158.36 925.47 158.14 925.69 175.66"/><line class="cls-3" x1="901.74" y1="158.36" x2="901.96" y2="175.66"/><line class="cls-3" x1="878.45" y1="158.14" x2="878.23" y2="175.66"/><rect class="cls-3" x="862.93" y="190.74" width="15.97" height="35.71"/><rect class="cls-3" x="862.93" y="190.74" width="15.97" height="11.31"/><rect class="cls-3" x="862.93" y="202.05" width="15.97" height="11.53"/><rect class="cls-3" x="878.9" y="190.74" width="11.09" height="35.71"/><rect class="cls-3" x="889.99" y="190.74" width="17.3" height="35.71"/><rect class="cls-3" x="907.28" y="190.74" width="15.52" height="35.71"/><line class="cls-3" x1="852.28" y1="179.21" x2="935.01" y2="179.87"/><line class="cls-3" x1="930.79" y1="179.87" x2="930.57" y2="226.45"/><rect class="cls-3" x="948.76" y="176.54" width="17.96" height="24.62"/><rect class="cls-3" x="978.48" y="176.54" width="17.96" height="24.62"/><rect class="cls-3" x="978.48" y="202.49" width="17.96" height="24.62"/><rect class="cls-3" x="948.98" y="202.49" width="17.96" height="24.62"/><polyline class="cls-3" points="840.23 251.06 832.25 251.06 832.25 293.05 844.67 293.35"/><polyline class="cls-3" points="844.67 265.85 850.29 265.85 850.58 250.47 868.03 251.06 867.44 281.82 914.75 282.41 914.46 251.66 961.47 251.66 960.88 285.37 948.46 285.66"/><polyline class="cls-3" points="862.12 294.53 912.68 294.83 912.98 322.03 961.07 322.33 960.88 290.69"/><line class="cls-3" x1="852.06" y1="333.34" x2="961.18" y2="334.01"/><line class="cls-3" x1="871.47" y1="295.09" x2="871.47" y2="325.91"/><line class="cls-3" x1="876.9" y1="321.81" x2="911.72" y2="321.81"/><ellipse class="cls-3" cx="357.04" cy="578.53" rx="18.17" ry="19.63"/><ellipse class="cls-3" cx="357.04" cy="578.3" rx="12.42" ry="13.42"/><path class="cls-3" d="M353.71,587.58s9.25-.37,10.35-10.94"/><path class="cls-3" d="M702.28,305.62l-14.7,6a18.26,18.26,0,0,0-11.3,18.54l8.33,93.23s1.56,12,11.54,4.66l25.52-21.47a3.61,3.61,0,0,1,5.66,1.39c4.15,10.08,13.69,34.6,14.73,49.13"/><path class="cls-3" d="M721.65,407.2s-16-46-17.74-74.67"/><path class="cls-3" d="M727,307.84l-3-15.93a4.13,4.13,0,0,1,4.33-4.94,5.16,5.16,0,0,1,3.39,1.94l1.77,18.63-1.77-18.63a5.22,5.22,0,0,1,6-.67,5.79,5.79,0,0,1,3.2,5.45l-.78,20.21c.15,4.73-5.91,6.51-5.91,6.51L701.4,332.83"/><path class="cls-3" d="M481.83,183.35s-.89-9.17,10.65-4C492.48,179.35,487.6,188.22,481.83,183.35Z"/><path class="cls-3" d="M463.81,174.81s.89-9.17-10.64-4C453.17,170.81,458.05,179.69,463.81,174.81Z"/><path class="cls-3" d="M471.65,186.86s.89-9.17-10.64-4C461,182.86,465.88,191.74,471.65,186.86Z"/><path class="cls-3" d="M473.18,166.55s.89-9.17-10.64-4C462.54,162.55,467.42,171.42,473.18,166.55Z"/><path class="cls-3" d="M481.39,168.56s-.89-9.17,10.64-4C492,164.57,487.15,173.44,481.39,168.56Z"/><path class="cls-3" d="M473.5,166.42s6.05,2.53,4.95-6.4C478.45,160,471.39,161.48,473.5,166.42Z"/><path class="cls-3" d="M481.39,168.56a18.52,18.52,0,0,0-7.69,16.86"/><path class="cls-3" d="M473.18,166.55s1.85,5,.19,17"/><path class="cls-3" d="M471.65,186.86s2.83.55.05,14.63"/><path class="cls-3" d="M472,159s6.76-6-4.17-9.34C467.85,149.67,465,159,472,159Z"/><path class="cls-3" d="M472,159s1,.46.9,5"/><path class="cls-3" d="M732.74,252.62s5.1-12.42,12.87-9.76c0,0,15.19,8.76-.56,29.16,0,0-4.1,6.32-11.86,1"/><path class="cls-3" d="M746.83,255.17a9.75,9.75,0,0,0-.62-3.33,3.84,3.84,0,0,0-5.54-1.82,9.75,9.75,0,0,0-2.52,2,3.35,3.35,0,0,0,.84,5h0a3.88,3.88,0,0,1,1.15,5.45L738,265.7"/><path class="cls-10" d="M530.18,276.05l.09,0,.75-.14Zm-7.4,17.66L474,282.55V267.09l48.79,9.39Z"/><path class="cls-1" d="M692.73,217.36s25.28,10.21,20.68,30.89,7.15,9.45,7.15,9.45"/><path class="cls-8" d="M692.73,217.36a39.82,39.82,0,0,1,13.21,7.7,25.8,25.8,0,0,1,8.38,13,21.85,21.85,0,0,1,.42,7.89c-.18,1.31-.48,2.61-.75,3.8s-.5,2.45-.7,3.67a21.46,21.46,0,0,0-.24,3.65c0,1.16.27,2.43,1.09,2.95a2,2,0,0,0,1.52.22,6.49,6.49,0,0,0,1.71-.57,17.2,17.2,0,0,0,3.19-2,14.57,14.57,0,0,1-2.92,2.49,6.82,6.82,0,0,1-1.81.84,3,3,0,0,1-2.17-.12,3.26,3.26,0,0,1-1.44-1.7,8.56,8.56,0,0,1-.48-2,20.74,20.74,0,0,1,0-3.94c.17-2.57.87-5.14,1.12-7.51a20.46,20.46,0,0,0-.48-7.19,21.41,21.41,0,0,0-2.86-6.65,32.17,32.17,0,0,0-4.64-5.73A53.73,53.73,0,0,0,692.73,217.36Z"/></svg>