<svg id="Layer_1" data-name="Layer 1" xmlns="http://www.w3.org/2000/svg" viewBox="0 0 841.89 595.28"><defs><style>.cls-1,.cls-2,.cls-3,.cls-6,.cls-7{fill:#e4dacf;}.cls-2,.cls-3,.cls-5,.cls-6,.cls-7{stroke:#623211;}.cls-2,.cls-3,.cls-5,.cls-7{stroke-miterlimit:10;}.cls-2{stroke-width:3px;}.cls-3,.cls-5,.cls-6{stroke-width:2px;}.cls-4{fill:#623211;}.cls-5{fill:none;}.cls-6{stroke-linejoin:round;}</style></defs><rect class="cls-1" x="110.48" y="-132.32" width="620.94" height="859.91" transform="translate(123.31 718.58) rotate(-90)"/><rect class="cls-2" x="-18.46" y="546.06" width="1619.1" height="31.3"/><rect class="cls-3" x="805.29" y="153.32" width="14.33" height="392.8"/><path class="cls-3" d="M447.25,294.31l2.28-8.87a7.56,7.56,0,0,0-7.31-9.44H420.91s-11.88-2.14-12.52,1c0,0-8.14,21.09-6.53,26.55l39.39,5,6-13.81"/><polygon class="cls-3" points="146.85 535.46 146.85 535.49 138.06 532.08 146.85 535.46"/><polyline class="cls-3" points="414.06 492.9 515.76 524.59 370.6 580.26 224.57 525.23 255.62 515.38"/><polyline class="cls-3" points="281.68 520.74 261.61 527 365.51 564.42 473.1 524.75 393.13 499.38"/><polyline class="cls-3" points="328.2 510.25 336.55 507.25 363.64 516.67 341.26 525.55"/><polygon class="cls-3" points="302.4 485.73 337.57 520.25 333.23 524.59 296.62 490.39 302.4 485.73"/><path class="cls-3" d="M290.41,477.54l9.74,9.47-3.53,3.38-10.14-8.5a2.93,2.93,0,0,1,.1-4.57h0A2.94,2.94,0,0,1,290.41,477.54Z"/><polygon class="cls-3" points="291.19 478.23 286.72 482.09 296.62 490.39 300.15 487.01 291.19 478.23"/><path class="cls-3" d="M230,303.09s-5.94-6.09-9.67-1.07a7.64,7.64,0,0,0-1.27,6.08c1,5.07,4.2,16.18,12.65,15.44,0,0-.64,8.24,8.24,15.52l22.59,12.1s10.92,4.07,15.1-4.39c0,0,5.07-11,6.24-17.14a3.51,3.51,0,0,1,1.23-2l1.55-1.27a3,3,0,0,0,1-3.24l-3.21-10.2a11.73,11.73,0,0,1,1-9.32l.81-1.41a8.83,8.83,0,0,1,2.83-3l1.36-.89a3.7,3.7,0,0,0,1.64-3.51L290.19,278a5.58,5.58,0,0,0-4.71-4.29s8.73,3.94,11.38-1.44c0,0-9.23.8-9.8-.8,0,0,8.84.24,10.28-5.95l-11.72,4.18"/><path class="cls-3" d="M244,299s-6.27,1.92-4.9,14.21c0,0-5.06-1.13-6.75-9.56,0,0,3.05,3.54,3.86,1.93"/><path class="cls-3" d="M233,289.25s4.73,5.22,10.83,4.66"/><path class="cls-3" d="M232.46,285.48a14.5,14.5,0,0,0,14.62,5.06"/><path class="cls-3" d="M237.68,280s9.88,10.44,22.89,2.81"/><path class="cls-3" d="M246.43,281.86s11.41,2,16.87-3.53"/><path class="cls-3" d="M282.73,269.58s-8.27-4.9-15,5"/><path class="cls-3" d="M294,266.61l-4.57-6a18.14,18.14,0,0,0-5.94-5L271,249"/><path class="cls-3" d="M280.88,253.84s-5.46-12.84-29-13.59c0,0-18.63.1-28.16,9.74"/><path class="cls-3" d="M218.57,254.06s-17.66,14-10.06,36.72A70.74,70.74,0,0,0,219,310.05s3.21,13.7-1.6,16.7"/><path class="cls-3" d="M228.1,307.16s-2.54-4.35-5.18-1.92a4.38,4.38,0,0,0-1.37,3.08,5.34,5.34,0,0,0,1.52,4.19"/><path class="cls-4" d="M228.5,311.38l.36-.28a1.33,1.33,0,0,0,.13-2h0a1.33,1.33,0,0,0-2,.1l-1.08,1.32a2.61,2.61,0,0,0,.17,3.5l2.79,2.8a.85.85,0,0,0,1.17,0h0a.86.86,0,0,0,.14-1.17L228.26,313A1.2,1.2,0,0,1,228.5,311.38Z"/><path class="cls-4" d="M261.94,311.89s1.92,5,5.69-.32l1.21-.16v-1l-8.19,1.12.08.44Z"/><path class="cls-3" d="M277,328.46s.65-1.07,4.12-.59c0,0,1.18-.75-.21-1.6,0,0-3.91-.16-4.66,1.17C276.22,327.44,275.49,328.5,277,328.46Z"/><path class="cls-3" d="M259.68,350.09s-10.92,9-10.92,16.7"/><path class="cls-3" d="M218.79,315.4s-4.5-1.28-11.35,9L167.7,338.93a49.07,49.07,0,0,0-32.13,43.73,272.64,272.64,0,0,0,8.25,81,9.87,9.87,0,0,1,.11,4.36c-.57,2.87-.42,8.6,7.49,13.45a1,1,0,0,1,.47,1c-.45,3.35-1.68,19,14.4,19.48a3.91,3.91,0,0,1,2.09.71l5,3.55a10.66,10.66,0,0,0,9.2,1l6.43-2.68"/><path class="cls-3" d="M185.92,412.29c5.78-63.59-34.37-58.56-34.37-58.56"/><path class="cls-3" d="M189.67,425.67s5.35-7.07-1.5-11.56c-25.72-16.88-32.12-25.05-32.12-25.05"/><path class="cls-3" d="M160.55,409l21.84,11.56s8.13,4.93,7.92,11.35c0,0,2.6,10.93,5.15,14.2a7.14,7.14,0,0,1,1.62,4.73,14.57,14.57,0,0,1-2.45,6.29"/><path class="cls-3" d="M164.83,477.91s3-16.27,24.2-20.12c0,0,9.63-3.21,11.56,5.35"/><path class="cls-4" d="M166.54,464a17,17,0,0,1,5.15-5.71,21,21,0,0,1,7.08-3.3,22.45,22.45,0,0,1,7.78-.51l1,.09,1,.19,1.88.42a36.78,36.78,0,0,1,3.6,1.32c-1.29-.06-2.52-.26-3.77-.35l-1.86-.08-.92-.06-.92,0c-.62,0-1.23,0-1.84,0s-1.21.13-1.81.2l-.91.08-.89.18c-.59.13-1.19.2-1.77.38l-1.74.48-1.7.63a29.06,29.06,0,0,0-3.29,1.56A29.57,29.57,0,0,0,166.54,464Z"/><path class="cls-3" d="M229.06,541l-2.14.25c-15.2,5.28-9.78,20.78-9.64,21.2l-70.43-27-8.79-3.38c-2.46-13.47,3.62-18.12,7.79-19.72.35-.13.69-.24,1-.34l.38-.1a11.28,11.28,0,0,1,2.19-.39l68,25.13Z"/><path class="cls-3" d="M230.49,541.58,217.74,563l-70.89-27.54-8.79-3.41,8.79,3.38,70.43,27c-.14-.42-5.56-15.92,9.64-21.2l2.14-.25Z"/><path class="cls-1" d="M159.48,458.86s9.2-12.21,32.11-6.85"/><path class="cls-4" d="M159.48,458.86A17.79,17.79,0,0,1,166,453a26.66,26.66,0,0,1,8.36-2.87,32.78,32.78,0,0,1,8.79-.2c1.46.14,2.89.48,4.31.73,1.4.4,2.8.82,4.15,1.31-1.45-.06-2.88-.21-4.3-.33l-2.13-.08c-.71,0-1.41-.12-2.12-.08-1.41.07-2.82,0-4.21.15-.7.06-1.4.06-2.09.16l-2.07.31a35.52,35.52,0,0,0-8,2.3A27.13,27.13,0,0,0,159.48,458.86Z"/><path class="cls-1" d="M155.41,496.33s-9.61-8.21,1.83-30.44"/><path class="cls-4" d="M155.41,496.33a9.47,9.47,0,0,1-2.68-3.14,18.18,18.18,0,0,1-.9-1.89c-.21-.67-.46-1.34-.61-2a17.93,17.93,0,0,1-.37-2.07c0-.69-.13-1.39-.16-2.09s.05-1.4.07-2.1.15-1.38.23-2.07l.15-1c.07-.34.16-.67.24-1l.48-2c.45-1.31.86-2.62,1.4-3.88s1.14-2.49,1.79-3.68,1.41-2.34,2.19-3.45c-.38,1.32-.84,2.58-1.29,3.85s-.79,2.56-1.22,3.81-.71,2.55-1,3.83-.62,2.56-.72,3.86a27.31,27.31,0,0,0-.22,7.76c.06.65.24,1.27.33,1.92a18,18,0,0,0,.54,1.87A12.56,12.56,0,0,0,155.41,496.33Z"/><path class="cls-3" d="M178.53,503.61S173.69,486,187.1,476.4c4.72-3.37,10.76-6.3,16.54-5.77,2.07.2,4.59,2,8.08,2.36,1.29-4.07-13.92-12.1-16.91-11.13"/><path class="cls-3" d="M205.4,328s-2.56,25.7,12.21,43.68c0,0,7.71-8.35,13.17-6.74"/><path class="cls-3" d="M225.42,366.36s13,17,19.81,18.2l-10-19.27C204.76,334.14,217,321,217,321"/><path class="cls-3" d="M256.69,352.23s5.56,10.06-10.71,34.68c0,0-.86,61.24-6.64,73.66"/><ellipse class="cls-3" cx="249.03" cy="427.76" rx="2.14" ry="3"/><ellipse class="cls-3" cx="249.03" cy="393.07" rx="2.14" ry="3"/><ellipse class="cls-3" cx="231.85" cy="370.4" rx="1.7" ry="2.38"/><path class="cls-3" d="M265.22,334.62s8.11,3.85,13.73.08"/><path class="cls-4" d="M254,306.62s11.78-3.21,18.73-1.82c0,0,2.9.08,1.88-1.44a2.5,2.5,0,0,0-2.05-1C269.18,302.31,258.32,302.58,254,306.62Z"/><path class="cls-3" d="M328,318.8h-7.46l-2.49-19.75c3.58,1.43,8.19,1.44,11.08,0Z"/><path class="cls-3" d="M266.86,352.23s3.31,11.77,1.71,18.95c0,0-4.18-5.57-5.78-5.68,0,0-1.93.32-1.82,4.61l-.22,2.35L246,386.91"/><path class="cls-3" d="M260.43,372.89s-7.17,16.81-6.31,23.23"/><path class="cls-5" d="M185.25,368.26a70.06,70.06,0,0,1,1,44.35"/><path class="cls-3" d="M146.85,509.85a13.16,13.16,0,0,0-12.7,13.06,12.89,12.89,0,0,0,3.82,9.17c-5.21-.17-1.62,3.43-1.62,3.43l103.85,39,3.85-28.69ZM217.74,563l-70.89-27.54-8.79-3.41c-2.46-13.47,3.62-18.12,7.79-19.72.35-.13.69-.24,1-.34l.38-.1a11.28,11.28,0,0,1,2.19-.39l68,25.13L229.2,541l-.14,0,1.43.54Z"/><path class="cls-3" d="M292.08,295.65s-2,6.57-2.85,9.21"/><path class="cls-4" d="M291.15,306.46h-.32a6.73,6.73,0,0,0-2.12.51,1.44,1.44,0,0,1,.09.51,1.83,1.83,0,0,1-3.64,0,1.56,1.56,0,0,1,.45-1.09h0c.66-2.66,5.44-1.22,5.44-1.22Z"/><path class="cls-3" d="M288.64,306.62s1.72,10.41-1.5,13.38"/><path class="cls-3" d="M211.72,473,243,483.48s16.38,3.21,22.81,0c0,0,16.86-5,21.19-.8l16.86,7.38,18.63,15.26s1.81,5.29-3.5,5.24a4.42,4.42,0,0,1-2.21-.63l-15-8.95-16.22-7.06,19.59,9.31c2.09,7.71-6.1,8.84-6.1,8.84l-17.83-8.84,17,8.67c.16,6.27-7.06,5.14-7.06,5.14L277,511.9,291.16,517a1.67,1.67,0,0,1-.8,1.61c-1.79,1.38-16,.27-20-.07a12,12,0,0,0-1.47-.06c-5.59.21-19.33-7.42-19.33-7.42l-2.95-1.39s-50.21,1.82-68.94-10.17"/><path class="cls-3" d="M251.65,490.23s-4.81,5.62-4.49,9"/><path class="cls-3" d="M296.94,359.19s-4.82,76.92-20.23,92.82"/><path class="cls-3" d="M213.43,473l13.17-9.79s28.43-.65,71.14-17.35c0,0,23.45-9,25.21,24.41l-53.31,6.59s-3.53,8.19-12.21,7.87"/><line class="cls-3" x1="240.89" y1="479.47" x2="238.65" y2="481.71"/><line class="cls-3" x1="235.76" y1="473.52" x2="229.33" y2="478.5"/><line class="cls-3" x1="227.89" y1="469.03" x2="220.34" y2="475.77"/><path class="cls-3" d="M291.16,448.47s-.16-6.58,19.11-11.08c0,0,22.64-2.09,28.1,16.54,0,0,9.72,15.74-6.68,14.25-.63-.06-.92,1.12-1.2.55h0a.47.47,0,0,0-.81-.07c-1.18,1.62-4.66,4-6.73,1.65"/><path class="cls-3" d="M337.73,429.68a43.49,43.49,0,0,0-38.06,10.92s20-14,36.21-6.5"/><path class="cls-3" d="M286.45,329.53s16.91,1.29,21.84,15.85l31.5,81.73a13.11,13.11,0,0,0,2.64,4.23l1.09,1.17a10.75,10.75,0,0,1,2.71,5.46c1.19,6.86,3,22.34-4.81,23"/><path class="cls-3" d="M305.29,345.16s1.93,27.84-10.49,40.47"/><path class="cls-3" d="M323.06,384.77s2.78,34.05-18.41,44.11"/><path class="cls-3" d="M304.22,391.84s-6.42,21.84-13.92,23.34"/><line class="cls-3" x1="300.15" y1="439.16" x2="289.02" y2="417.96"/><line class="cls-3" x1="137.32" y1="435.63" x2="134.1" y2="496.33"/><line class="cls-3" x1="71.48" y1="506.28" x2="151.45" y2="492.15"/><path class="cls-3" d="M135.39,414.43S80.47,416,83.68,434.34L94,501.15"/><line class="cls-3" x1="88.5" y1="432.09" x2="99.1" y2="496.97"/><path class="cls-3" d="M318.7,502.51h0a4.33,4.33,0,0,0-.19,6.65l1.47,1.3s3.78-.48,2.49-5.14Z"/><polygon class="cls-3" points="340.94 528.77 337.57 520.25 333.23 524.59 340.94 528.77"/><path class="cls-3" d="M473.42,291.9s8.35,28.91,36,33.08"/><path class="cls-3" d="M513.09,324s3.69-9,9.31-7.07c0,0,11,6.35-.4,21.12,0,0-3,4.58-8.59.72"/><path class="cls-3" d="M523.29,325.87a7.07,7.07,0,0,0-.45-2.41,2.77,2.77,0,0,0-4-1.32,7.1,7.1,0,0,0-1.83,1.49,2.42,2.42,0,0,0,.61,3.59h0a2.79,2.79,0,0,1,.83,3.94l-1.58,2.33"/><path class="cls-3" d="M472.94,284.14s-21.13-1.69-23.3,28.51a6.43,6.43,0,0,0,0,1.24c.34,3.28,2.1,18.59,5.71,26.78"/><path class="cls-3" d="M601.41,506.61l-9.85-55.25s-6.85-40.68-2.57-60.16c0,0,.22-21.63-25.48-30,0,0-15.41-5.78-20.12-40.25,0,0-7.28-71.3-68.09-46.68,0,0-24.93,8.54-25.63,39.6,0,0,4.61,32.69-.89,43.54a14,14,0,0,0-1.47,6.15,23.82,23.82,0,0,0,7.86,18"/><path class="cls-3" d="M458.17,352s-4.82,13.49,1.28,23.93"/><path class="cls-3" d="M451.9,363.2a15.31,15.31,0,0,0,2.73,12.69"/><path class="cls-3" d="M469.73,294.79s-11.56-.16-12.53,9.32l-1,15.25,5,8.67s-1.77,12.69,2.09,17.83l7.87,13.49s.64,9.95,7.86,8.51S504.9,364,504.9,364l10-20.23"/><path class="cls-1" d="M457,319.58s4,.58,5.84,3.69"/><path class="cls-4" d="M457,319.58a3.66,3.66,0,0,1,2-.26,4.84,4.84,0,0,1,1.83.65,3.81,3.81,0,0,1,2,3.3c-.68-.28-1.16-.56-1.66-.81s-.93-.51-1.38-.78-.9-.56-1.36-.89A12,12,0,0,1,457,319.58Z"/><path class="cls-3" d="M464,324.82s4.82,6.91-1.07,15.69l-1.67,2.57a2.28,2.28,0,0,0,.33,2.88,7.31,7.31,0,0,0,5.78,2.25"/><path class="cls-3" d="M470.29,353s7.31,3.7,12.77-1.68"/><path class="cls-3" d="M472.3,357.9s2.33.89,3.45.24"/><path class="cls-3" d="M468.37,345.78a11.22,11.22,0,0,0,3.21.16"/><path class="cls-4" d="M475.17,320.78h0a.93.93,0,0,0,.47,1.73h1.1l.21,0c.83-.19,6.64-1.42,10.07-.23a10.18,10.18,0,0,0,2.68.52h0s-3.77-4.56-14.25-2.13A1.18,1.18,0,0,0,475.17,320.78Z"/><path class="cls-4" d="M484.43,329.88a1.79,1.79,0,0,1,.26.92,2.12,2.12,0,0,1-4.22,0,1.79,1.79,0,0,1,.28-1h-.3l-3.9-.16a1.83,1.83,0,0,1,1.11-1.15,4,4,0,0,1,1.45-.38c7.58-.57,9.73,1.77,9.73,1.77Z"/><polyline class="cls-6" points="451.96 295.27 430.98 298.7 431.19 342.59 450.25 337.24"/><path class="cls-3" d="M502.06,363.36l-2.86-8.73a3.06,3.06,0,0,0-5.08-1.2,10.58,10.58,0,0,0-3.09,9s.11,1.28,1.18,1.28c4.63,0,2.89-5.46,2.89-5.46"/><path class="cls-3" d="M508.38,363.68l-1.63-11.21s-3.08-5.06-8,.72l3.21,9.74"/><path class="cls-3" d="M478.24,447.67s-3.85.64-2.25,4.82l14.94,38.22s4.33,11.08,17.18,7.71c0,0,33.72-12.05,46.09-31.32,0,0,34.26-47.27,34.79-75.9"/><path class="cls-3" d="M569.94,374.28s-23.45,5.46-29.87,36.13"/><path class="cls-3" d="M561.91,397.89s-31.48,12-28.11,25.05"/><path class="cls-3" d="M567.53,412.5s-32.6,2.89-40.31,18.79l-12.69,18.47s14.46,3.05,17.83,17.18"/><path class="cls-3" d="M541.51,389.7s-7.38,15.09-4.33,22.48"/><path class="cls-3" d="M519.67,344.57s-6.74,45.29,30.19,24.57"/><path class="cls-3" d="M532.84,332.69s3.69,5.46-.32,24.57,12.2,12.2,12.2,12.2"/><path class="cls-3" d="M529,374.6s-3.38,19.43-27.78,31.32l-6.11-3.54"/><path class="cls-3" d="M463.79,392s-4.5,16.54,7.87,23.28"/><path class="cls-3" d="M457.53,378.3a30.1,30.1,0,0,1-2.73,18.14s-15.1,26.34,12,22.48"/><path class="cls-3" d="M458.33,399.17s-5.3,11.89-.48,14.94"/><path class="cls-3" d="M448.37,373.16S419,425.19,420.43,430A16.87,16.87,0,0,0,414,438.2l-20.72,25.21-29.83,19.31a7.94,7.94,0,0,0-3.61,6.27l-1.08,9.75a4.8,4.8,0,0,0,2.08,4.52l5.84,4.42"/><line class="cls-3" x1="362.94" y1="487.5" x2="362.14" y2="504.04"/><line class="cls-3" x1="368.08" y1="486.21" x2="366.31" y2="501.31"/><path class="cls-3" d="M376.11,485.09l-9.64,22.8-.48,2.73-1.52,6.08a1.5,1.5,0,0,0,1.25,1.85h0a1.5,1.5,0,0,0,1.28-.45,22.56,22.56,0,0,0,3.86-4.75c4.31-6.82,11.39-18.9,16.8-23.69a.52.52,0,0,1,.83.56l-1.94,5.47-4.08,4.58a4.81,4.81,0,0,0-.53,5.67h0a2.8,2.8,0,0,0,4.56.34l9.09-11a6.62,6.62,0,0,0,1.14-2l1.22-3.48a9.07,9.07,0,0,0,.47-3.76l-.79-8.83"/><path class="cls-3" d="M398.54,484.87l17.23-1.6s15.63-5,18.42-13a18.78,18.78,0,0,0,1-6.19,1.52,1.52,0,0,1,1.15-1.52l.74-.19a3.67,3.67,0,0,0,2.67-2.73l1.53-6.6,19.38-31.26s4.18,1.07,8.46,28.26c0,0,2.35,12.85,11.77,17.13"/><path class="cls-3" d="M419.2,451a21.31,21.31,0,0,1,12.63,14.46"/><path class="cls-3" d="M413.1,455.43s15.63,3.21,14.45,16.06"/><path class="cls-3" d="M420.16,439.8s15.2,5.68,16.7,17.45"/><path class="cls-3" d="M444.25,440.12s-20.34-3.42-24.84-9.42"/><path class="cls-3" d="M420.91,446.44s-8.67-3.53-15.84,2.78"/><path class="cls-3" d="M393.29,463.41s21.31-5.73,26.34,10.22c0,0,1.82,7.07-5.36,9.53"/><path class="cls-3" d="M505.38,452.33s-12,13.65-24.09,12.36"/><path class="cls-3" d="M515.34,453.61s12.36,3.86,6.58,25.37"/><path class="cls-3" d="M579.25,424.22A158.41,158.41,0,0,0,575.07,466"/><path class="cls-3" d="M578.93,471.92l-4.58,7.36c-3.8,2.9-7.71,0-12.67,1.55a19,19,0,0,1-10.25.46l-4.78-1.18"/><path class="cls-3" d="M588.56,413.14s26,1,45.93,10.28c0,0,10,1.93,8,12.53L630.64,513"/><line class="cls-3" x1="638.99" y1="433.7" x2="626.46" y2="513.03"/><line class="cls-3" x1="707.72" y1="532.3" x2="529.47" y2="488.62"/><line class="cls-3" x1="437.29" y1="466.14" x2="484.5" y2="478.02"/><line class="cls-3" x1="393.93" y1="459.07" x2="341.58" y2="465.82"/><path class="cls-4" d="M457,327.07s4.92-1.71,7.82.64l-.65.75s-1.39,3.43-4.49.43A2.76,2.76,0,0,1,457,327.07Z"/><path class="cls-1" d="M468.85,281.06s7.54-3.21,10.27-2.57"/><path class="cls-4" d="M468.85,281.06a21,21,0,0,1,4.92-2.17,16.64,16.64,0,0,1,2.65-.57,5.73,5.73,0,0,1,2.7.17,10.36,10.36,0,0,0-2.6.4c-.85.23-1.69.46-2.54.72C472.29,280.11,470.6,280.65,468.85,281.06Z"/><path class="cls-1" d="M474.31,279.13s3.77.33,3.05,1.85"/><path class="cls-4" d="M474.31,279.13a3.49,3.49,0,0,1,2.12.07,2.29,2.29,0,0,1,1,.64,2.61,2.61,0,0,1,.17.28,1.91,1.91,0,0,1,.06.33.84.84,0,0,1-.26.53.72.72,0,0,0-.38-.72,4.3,4.3,0,0,0-.81-.35A12.36,12.36,0,0,1,474.31,279.13Z"/><path class="cls-3" d="M543,318s5.78,22,22.48,33.62c0,0,5.57,4.49,5.57,9.42"/><polyline class="cls-3" points="359.25 490.55 336.76 483.91 310 493.54"/><line class="cls-3" x1="269.64" y1="508.43" x2="271.89" y2="510.46"/><line class="cls-3" x1="270.6" y1="499.22" x2="274.35" y2="501.15"/><line class="cls-3" x1="273.92" y1="492.15" x2="278.1" y2="491.83"/><line class="cls-3" x1="278.2" y1="487.44" x2="280.45" y2="487.55"/><path class="cls-3" d="M326.7,284.35s-.64-6.63,7.71-2.89C334.41,281.46,330.88,287.89,326.7,284.35Z"/><path class="cls-3" d="M319.85,289.36s.64-6.64-7.71-2.89C312.14,286.47,315.68,292.89,319.85,289.36Z"/><path class="cls-3" d="M316,280.08s.64-6.63-7.71-2.89C308.33,277.19,311.86,283.62,316,280.08Z"/><path class="cls-3" d="M326.33,283.87s-4.58,2.57-2.89,15.74"/><path class="cls-3" d="M316,280.08s8.28,1.46,7.56,7.32"/><path class="cls-3" d="M319.85,289.36s2.78-1.23,3.18,4.95"/><path class="cls-3" d="M331.41,273.86s-5.65,1-6.61,8.08"/><path class="cls-3" d="M318.46,267.41s8.19,1.85,6.74,11.8"/><line class="cls-3" x1="181.96" y1="198.92" x2="340.94" y2="198.92"/><polyline class="cls-3" points="227.89 175.8 344.79 175.8 344.79 283.71"/><line class="cls-3" x1="347.04" y1="178.69" x2="348.97" y2="282.11"/><polyline class="cls-3" points="415.77 160.38 352.18 178.04 352.5 281.14"/><polyline class="cls-3" points="500.56 167.13 356.36 199.88 357.64 281.14"/><line class="cls-3" x1="361.17" y1="199.24" x2="361.82" y2="278.89"/><line class="cls-3" x1="364.71" y1="198.6" x2="364.71" y2="276"/><rect class="cls-3" x="398.75" y="239.07" width="11.88" height="26.98"/><rect class="cls-3" x="401.96" y="208.24" width="11.88" height="26.98"/><rect class="cls-3" x="420.91" y="218.19" width="11.88" height="26.98"/><polygon class="cls-3" points="478.4 254.81 447.57 253.2 447.57 218.83 478.4 216.26 478.4 254.81"/><polygon class="cls-3" points="478.4 254.81 501.63 256.09 501.63 214.12 478.4 216.26 478.4 254.81"/><polygon class="cls-3" points="429.96 344.73 423.54 343.48 423.54 341.17 429.96 342.36 429.96 344.73"/><path class="cls-3" d="M410.21,302.87s-19.7.33-26.66,3.22c0,0-12.1-.65-11.88,8.13,0,0-.86,8,2.35,9.1l40.58,7.6s4.81,2,7.06-.64l.32-26Z"/><path class="cls-3" d="M438.82,295.39l3.44-6.62a1.38,1.38,0,0,0-1.37-2.06l-9.17,1.07-3.68.4a3.5,3.5,0,0,1-2.29-.55l-5.23-3.39a2.45,2.45,0,0,0-3.46.83,8.88,8.88,0,0,0-1,7.41,1.12,1.12,0,0,1-.32,1.24c-1.35,1.1-4.36,4.2-5.14,10.26a.76.76,0,0,0,.79.87c2.38-.12,8.81-.28,10.46,1.45"/><path class="cls-3" d="M399.18,303.3c-6.29-3.92-26.89-5-32.85-5.29a18.3,18.3,0,0,0-3.14.14L345,300.52c-11.35,2-7.07,17.13-7.07,17.13l34.31,5.24"/><path class="cls-3" d="M372.63,299.34l2.85,1.14a2.31,2.31,0,0,0,3.17-2.13c0-2.52-.13-5.72-1-6.82l5.21-7.94a1.6,1.6,0,0,0-1.46-2.47c-2.87.23-6.83.71-8.14,1.63l-7.83-3.62a1.63,1.63,0,0,0-2.28,1.19l-.92,5.1c-2.4,2.25-3,6.86-4.15,11a1.8,1.8,0,0,0,2.12,2.37l5.34-1.35a5.67,5.67,0,0,1,3.76.34Z"/><path class="cls-3" d="M408.39,277.21s-1.29-3.46-6.59-3.21l-10.6-.08a5,5,0,0,1-.95-.09l-10.11-1.89a6.82,6.82,0,0,0-6.45,2.27,10.17,10.17,0,0,0-2.32,7.33"/><polygon class="cls-3" points="361.82 286.04 334.76 289.93 334.52 316.02 341.18 316.5 341.74 291.45 360.21 288.93 361.82 286.04"/><line class="cls-3" x1="345.28" y1="307" x2="369.04" y2="311.01"/><line class="cls-3" x1="376.27" y1="312.14" x2="392.17" y2="315.03"/><path class="cls-3" d="M395.06,317s9.47-1.92,22.32,1.77"/><line class="cls-3" x1="291.48" y1="321.45" x2="320.87" y2="318.24"/><line class="cls-3" x1="334.76" y1="289.93" x2="341.74" y2="291.45"/><polyline class="cls-3" points="421.34 340.24 337.83 323.54 337.94 317.65"/><polygon class="cls-3" points="325.74 330.95 325.74 330.96 322.21 330.28 325.74 330.95"/><polygon class="cls-6" points="363.05 338.14 403.46 330.39 341.88 319.46 312.02 328.15 363.05 338.14"/><polygon class="cls-3" points="403.46 333.92 401.67 334.27 401.88 356.86 397.63 357.66 397.65 350.44 366.49 341.01 367.03 340.91 371.24 340.35 397.66 346.97 397.69 335.03 367.03 340.91 366.42 340.99 366.49 341.01 364.6 341.37 364.6 363.36 361.06 363.36 361.06 357.87 325.74 349.97 325.74 355.23 322.21 355.23 322.21 330.28 325.74 330.96 363.05 338.14 403.46 330.39 403.46 333.92"/><polygon class="cls-6" points="421.88 298.06 421.98 340.88 431.19 342.59 430.98 298.7 421.88 298.06"/><polygon class="cls-6" points="421.88 298.06 446.44 294.39 452.71 295.43 430.98 298.7 421.88 298.06"/><polygon class="cls-3" points="367.03 340.91 366.49 341.01 366.42 340.99 367.03 340.91"/><polygon class="cls-6" points="355.4 326.07 328.84 322.32 328.84 315.18 355.4 317.92 355.4 326.07"/><polygon class="cls-6" points="360.18 315.51 333.26 312.73 328.84 315.18 355.4 317.92 360.18 315.51"/><polygon class="cls-6" points="355.4 317.92 355.4 326.07 360.01 323.08 360.18 315.51 355.4 317.92"/><polyline class="cls-3" points="367.97 562.22 351.38 555.1 357.48 553.17 343.83 548.04 371.29 538.56 398.91 549.32 374.5 559.12"/><line class="cls-3" x1="367.97" y1="562.22" x2="351.38" y2="555.1"/><polyline class="cls-3" points="430.92 538.56 414.33 531.44 420.43 529.51 406.78 524.38 434.24 514.9 461.86 525.66 437.45 535.46"/><polyline class="cls-3" points="287.3 534.23 271.08 528.52 290.3 522.66 318.89 534.44 321.88 533.48 332.7 537.65 350.9 544.72"/><line class="cls-3" x1="291.91" y1="521.81" x2="318.24" y2="513.46"/><path class="cls-3" d="M365.83,511.8s4-.22,3.8,3.32"/><path class="cls-3" d="M382.37,506.12s3.53-5.56,6.64-3"/><polyline class="cls-3" points="374.34 508.69 382.21 512.07 370.33 515.76"/><line class="cls-3" x1="383.82" y1="512.07" x2="412.08" y2="521.38"/><polyline class="cls-3" points="388.15 510.46 403.41 504.84 415.77 510.14 400.2 515.44"/><polyline class="cls-3" points="356.19 520.25 388.63 532.14 375.95 537.28 405.98 548.36"/><line class="cls-3" x1="392.01" y1="531.17" x2="397.95" y2="528.77"/><line class="cls-3" x1="322.31" y1="489.9" x2="357.32" y2="501.63"/><line class="cls-3" x1="333.39" y1="505.48" x2="357.32" y2="496.49"/><line class="cls-3" x1="328.25" y1="491.83" x2="314.44" y2="497.13"/><polyline class="cls-3" points="519.83 263.48 519.83 194.1 723.46 194.1 723.46 398.37 601.73 398.37"/><polyline class="cls-3" points="612.49 249.51 571.38 223.33 534.77 246.46 545.69 243.56 545.85 298.16"/><rect class="cls-3" x="554.2" y="275.68" width="41.75" height="28.58"/><rect class="cls-3" x="554.2" y="275.68" width="41.75" height="3.37"/><rect class="cls-3" x="554.2" y="275.68" width="11.56" height="28.8"/><rect class="cls-3" x="565.76" y="275.68" width="20.77" height="28.8"/><rect class="cls-3" x="557.35" y="243.67" width="31.82" height="21.78"/><rect class="cls-3" x="557.35" y="243.67" width="31.82" height="2.57"/><rect class="cls-3" x="557.35" y="243.67" width="8.81" height="21.95"/><rect class="cls-3" x="566.16" y="243.67" width="15.83" height="21.95"/><rect class="cls-3" x="551.09" y="265.62" width="46.14" height="2.89"/><rect class="cls-3" x="551.09" y="305.87" width="153.57" height="2.89"/><polyline class="cls-3" points="598.36 238.75 655.53 238.75 657.78 247.58"/><polyline class="cls-3" points="605.75 248.7 608.8 250.47 661.15 249.83"/><polyline class="cls-3" points="656.49 249.83 656.65 268.46 601.25 268.3 601.25 245.17"/><polyline class="cls-3" points="601.25 255.77 652.64 255.61 652.8 268.3"/><line class="cls-3" x1="635.46" y1="255.77" x2="635.62" y2="268.29"/><line class="cls-3" x1="618.59" y1="255.61" x2="618.43" y2="268.29"/><rect class="cls-3" x="607.35" y="279.21" width="11.56" height="25.85"/><rect class="cls-3" x="607.35" y="279.21" width="11.56" height="8.19"/><rect class="cls-3" x="607.35" y="287.4" width="11.56" height="8.35"/><rect class="cls-3" x="618.91" y="279.21" width="8.03" height="25.85"/><rect class="cls-3" x="626.94" y="279.21" width="12.53" height="25.85"/><rect class="cls-3" x="639.47" y="279.21" width="11.24" height="25.85"/><line class="cls-3" x1="599.64" y1="270.86" x2="659.54" y2="271.35"/><line class="cls-3" x1="656.49" y1="271.35" x2="656.33" y2="305.07"/><rect class="cls-3" x="669.5" y="268.94" width="13.01" height="17.83"/><rect class="cls-3" x="691.02" y="268.94" width="13.01" height="17.83"/><rect class="cls-3" x="691.02" y="287.73" width="13.01" height="17.83"/><rect class="cls-3" x="669.66" y="287.73" width="13.01" height="17.83"/><polyline class="cls-3" points="590.92 322.89 585.14 322.89 585.14 353.3 594.13 353.51"/><polyline class="cls-3" points="594.13 333.6 598.2 333.6 598.41 322.47 611.05 322.89 610.62 345.16 644.88 345.59 644.66 323.32 678.71 323.32 678.28 347.73 669.28 347.95"/><polyline class="cls-3" points="606.76 354.37 643.38 354.58 643.59 374.28 678.41 374.5 678.28 351.59"/><line class="cls-3" x1="599.48" y1="382.47" x2="678.49" y2="382.95"/><line class="cls-3" x1="613.54" y1="354.77" x2="613.54" y2="377.09"/><line class="cls-3" x1="617.47" y1="374.12" x2="642.68" y2="374.12"/><ellipse class="cls-3" cx="241.06" cy="560" rx="13.15" ry="14.21"/><ellipse class="cls-3" cx="241.06" cy="559.84" rx="8.99" ry="9.72"/><path class="cls-3" d="M238.65,566.56s6.69-.27,7.49-7.92"/><path class="cls-3" d="M491,362.4l-10.64,4.34a13.22,13.22,0,0,0-8.18,13.42l6,67.51s1.13,8.67,8.35,3.37l18.48-15.54a2.61,2.61,0,0,1,4.1,1c3,7.3,9.91,25.05,10.66,35.57"/><path class="cls-3" d="M505.06,436s-11.56-33.3-12.85-54.07"/><path class="cls-3" d="M508.91,364l-2.16-11.53a3,3,0,0,1,3.13-3.58,3.71,3.71,0,0,1,2.46,1.41l1.28,13.49-1.28-13.49a3.77,3.77,0,0,1,4.35-.48,4.17,4.17,0,0,1,2.31,3.94l-.56,14.63c.11,3.43-4.28,4.71-4.28,4.71l-23.77,9"/><path class="cls-3" d="M331.41,273.86s-.64-6.64,7.71-2.89C339.12,271,335.59,277.39,331.41,273.86Z"/><path class="cls-3" d="M318.37,267.68s.64-6.64-7.71-2.89C310.66,264.79,314.19,271.21,318.37,267.68Z"/><path class="cls-3" d="M324,276.4s.64-6.63-7.71-2.89C316.33,273.51,319.86,279.94,324,276.4Z"/><path class="cls-3" d="M325.15,261.7s.64-6.64-7.71-2.89C317.44,258.81,321,265.23,325.15,261.7Z"/><path class="cls-3" d="M331.09,263.16s-.64-6.64,7.71-2.89C338.8,260.27,335.27,266.69,331.09,263.16Z"/><path class="cls-3" d="M325.38,261.61s4.38,1.83,3.58-4.64C329,257,323.85,258,325.38,261.61Z"/><path class="cls-3" d="M331.09,263.16a13.41,13.41,0,0,0-5.57,12.2"/><path class="cls-3" d="M325.15,261.7s1.34,3.62.13,12.3"/><path class="cls-3" d="M324,276.4s2,.41,0,10.6"/><path class="cls-3" d="M324.31,256.24s4.9-4.37-3-6.76C321.28,249.48,319.23,256.23,324.31,256.24Z"/><path class="cls-3" d="M324.31,256.24s.73.33.65,3.62"/><path class="cls-7" d="M366.42,341l.07,0,.54-.1Zm-5.36,12.78-35.32-8.08V334.5l35.32,6.8Z"/><path class="cls-1" d="M477.12,295s25.27,10.22,20.68,30.9,7.15,9.44,7.15,9.44"/><path class="cls-4" d="M477.12,295a39.78,39.78,0,0,1,13.2,7.7,25.92,25.92,0,0,1,8.39,13,21.89,21.89,0,0,1,.42,7.9c-.18,1.3-.49,2.6-.76,3.8s-.5,2.44-.69,3.66a21.61,21.61,0,0,0-.25,3.65c.05,1.17.28,2.43,1.09,3a2.1,2.1,0,0,0,1.53.23,7.47,7.47,0,0,0,1.71-.57,18.53,18.53,0,0,0,3.19-2,14.91,14.91,0,0,1-2.93,2.49,6.46,6.46,0,0,1-1.8.84,2.94,2.94,0,0,1-2.17-.12,3.21,3.21,0,0,1-1.44-1.7,7.57,7.57,0,0,1-.48-2,19.85,19.85,0,0,1,0-3.93c.17-2.58.87-5.15,1.12-7.51a20.5,20.5,0,0,0-.48-7.2,21.67,21.67,0,0,0-2.87-6.65,31.65,31.65,0,0,0-4.64-5.73A53.89,53.89,0,0,0,477.12,295Z"/></svg>