<svg id="Layer_1" data-name="Layer 1" xmlns="http://www.w3.org/2000/svg" viewBox="0 0 841.89 595.28"><defs><style>.cls-1,.cls-2,.cls-3,.cls-4,.cls-7{fill:#e4dacf;}.cls-2,.cls-3,.cls-4,.cls-5,.cls-6,.cls-7{stroke:#623211;}.cls-2,.cls-3,.cls-4,.cls-5,.cls-6{stroke-miterlimit:10;}.cls-2{stroke-width:3px;}.cls-3,.cls-5,.cls-7{stroke-width:2px;}.cls-4,.cls-6{stroke-width:4px;}.cls-5,.cls-6{fill:none;}.cls-7{stroke-linejoin:round;}.cls-8{fill:#623519;}.cls-9{fill:#623211;}</style></defs><rect class="cls-1" x="110.48" y="-132.32" width="620.94" height="859.91" transform="translate(123.31 718.58) rotate(-90)"/><rect class="cls-2" x="-980.86" y="553.6" width="1848.94" height="35.75"/><path class="cls-3" d="M443.75,296.15,446.36,286A8.62,8.62,0,0,0,438,275.25H413.68s-13.58-2.45-14.31,1.1c0,0-9.29,24.08-7.46,30.31l45,5.75,6.85-15.77"/><line class="cls-3" x1="140.8" y1="187.22" x2="322.35" y2="187.22"/><polyline class="cls-3" points="193.25 160.81 326.75 160.81 326.75 284.05"/><rect class="cls-3" x="388.37" y="233.07" width="13.57" height="30.81"/><rect class="cls-3" x="392.04" y="197.86" width="13.57" height="30.81"/><rect class="cls-3" x="413.68" y="209.23" width="13.57" height="30.81"/><polygon class="cls-3" points="479.33 251.04 444.12 249.21 444.12 209.96 479.33 207.03 479.33 251.04"/><polygon class="cls-3" points="479.33 251.04 505.86 252.51 505.86 204.58 479.33 207.03 479.33 251.04"/><path class="cls-3" d="M434.12,297.39l3.93-7.57a1.58,1.58,0,0,0-1.56-2.35L426,288.69l-4.2.46a4,4,0,0,1-2.62-.62l-6-3.88a2.78,2.78,0,0,0-4,1,10.11,10.11,0,0,0-1.11,8.46,1.29,1.29,0,0,1-.37,1.42c-1.53,1.26-5,4.8-5.87,11.72a.87.87,0,0,0,.91,1c2.72-.14,10.05-.33,11.94,1.65"/><path class="cls-3" d="M388.86,306.42c-7.19-4.48-30.71-5.76-37.51-6a21.53,21.53,0,0,0-3.59.15L327,303.24c-13,2.32-8.07,19.56-8.07,19.56l39.18,6"/><polyline class="cls-3" points="449.13 297.25 425.17 301.16 425.41 351.29 447.17 345.18"/><polygon class="cls-3" points="424.01 353.73 416.67 352.3 416.67 349.66 424.01 351.02 424.01 353.73"/><polygon class="cls-3" points="414.78 300.43 414.9 349.33 425.41 351.29 425.17 301.16 414.78 300.43"/><path class="cls-3" d="M358.54,301.9l3.25,1.3a2.65,2.65,0,0,0,3.63-2.44c0-2.87-.15-6.52-1.14-7.79l6-9.06a1.82,1.82,0,0,0-1.67-2.82c-3.28.27-7.79.81-9.29,1.86l-8.95-4.13a1.85,1.85,0,0,0-2.6,1.35l-1,5.83c-2.74,2.57-3.39,7.83-4.74,12.61a2,2,0,0,0,2.41,2.7l6.1-1.54a6.5,6.5,0,0,1,4.3.39Z"/><polygon class="cls-1" points="446.96 344.47 420.57 363.96 413.68 348.76 413.04 326.32 426.98 321.04 446.96 344.47"/><path class="cls-3" d="M399.37,276.62s-1.47-3.94-7.52-3.67l-12.11-.08a6.59,6.59,0,0,1-1.08-.11l-11.54-2.15a7.76,7.76,0,0,0-7.37,2.59,11.63,11.63,0,0,0-2.65,8.37"/><polygon class="cls-3" points="346.19 286.71 315.29 291.15 315.01 320.94 322.63 321.49 323.27 292.89 344.36 290.01 346.19 286.71"/><line class="cls-3" x1="327.3" y1="310.64" x2="354.44" y2="315.22"/><line class="cls-3" x1="362.69" y1="316.51" x2="380.85" y2="319.81"/><path class="cls-3" d="M384.15,322s10.82-2.2,25.49,2"/><line class="cls-3" x1="265.87" y1="327.14" x2="299.43" y2="323.47"/><line class="cls-3" x1="315.29" y1="291.15" x2="323.27" y2="292.89"/><polygon class="cls-3" points="347.6 346.2 393.75 337.35 323.42 324.87 289.33 334.79 347.6 346.2"/><polygon class="cls-3" points="393.75 341.39 391.7 341.78 391.95 367.58 387.08 368.5 387.11 360.25 351.52 349.48 352.14 349.36 356.95 348.72 387.12 356.29 387.16 342.65 352.14 349.36 351.44 349.45 351.52 349.48 349.37 349.89 349.37 375 345.33 375 345.33 368.73 304.99 359.71 304.99 365.72 300.96 365.72 300.96 337.23 304.99 338.01 347.6 346.2 393.75 337.35 393.75 341.39"/><polygon class="cls-3" points="352.14 349.36 351.52 349.48 351.44 349.45 352.14 349.36"/><polygon class="cls-3" points="338.87 332.42 308.54 328.14 308.54 319.98 338.87 323.11 338.87 332.42"/><polygon class="cls-3" points="344.32 320.36 313.58 317.19 308.54 319.98 338.87 323.11 344.32 320.36"/><polygon class="cls-3" points="338.87 323.11 338.87 332.42 344.13 329 344.32 320.36 338.87 323.11"/><path class="cls-3" d="M122.12,562.15s52.35,26.17,121.37-10.66"/><polygon class="cls-1" points="304.04 393.59 292.29 393.8 292.29 337.37 303.9 337.37 304.04 393.59"/><path class="cls-3" d="M244.46,399.48s4.65,101.79,11.24,119.43c0,0,4.22,9.31-2.71,14.16,0,0-18.42,17-45,19.63"/><path class="cls-3" d="M216,306.66l25.45-14.39s5.53-1.65,7.47-12.51l1.91-7.58a14,14,0,0,1,5.63-8.11l12-8.27a5.36,5.36,0,0,1,3-1h5.33a12.65,12.65,0,0,1,6,1.51l6.4,3.43,1.64.38a3.87,3.87,0,0,1,3,3.78V274"/><circle class="cls-3" cx="278.45" cy="267.06" r="11.76"/><circle class="cls-3" cx="278.64" cy="267.06" r="8.46"/><circle class="cls-4" cx="278.64" cy="267.13" r="5.25"/><path class="cls-3" d="M107.19,289,87,301.7s-12.41,9.05-12.41,20L74,340.52a135.53,135.53,0,0,0,3.18,33.9l15.39,69.07,8.15,42.66s2.3,15-.92,20.88a17.1,17.1,0,0,0-1.64,4.5c-1,4.42-1.76,12.25,2.3,19.34l7,11.68a22.25,22.25,0,0,0,11.51,9.53c10.68,3.89,31.35,10.37,54,11.88,0,0,21.46,2.07,38.39-14.22,0,0,18.61-16.41,24-33"/><path class="cls-5" d="M144.61,451.93s18,1.69,77.87-41c11-7.85,24.25-14.66,37.75-15.51l90.47-1.94s6.3-.3,9.13-2.61a1.61,1.61,0,0,1,1.94-.07c1.6,1.16,5.43,2.44,13.28-1.72a1.62,1.62,0,0,1,2.21.68c.91,1.89,4,4,14.35-1.7,0,0,8.92-7.18,10.08-11.06"/><polyline class="cls-3" points="81.02 105.56 520.33 105.56 520.33 431.28 464.25 439.42 464.25 139.88 168.72 134.65"/><polygon class="cls-3" points="182.88 140.27 451.52 145.31 451.52 442.33 464.25 446.21 520.33 437.68 842.59 507.08 842.59 497.39 520.33 431.28 464.25 439.42 464.25 139.88 -23.54 131.74 -23.54 138.2 182.88 140.27"/><path class="cls-3" d="M200.77,303s-30-24.82-61.78-28.18l-21.71-.89a7.45,7.45,0,0,0-7.67,6.24l-2.68,16.36s32.57-5.94,54.8,1.3S200.77,303,200.77,303Z"/><path class="cls-3" d="M179.44,287.36v-7.2a6.42,6.42,0,0,1,8.05-6.21l7.45,1.94a7.56,7.56,0,0,0,9.42-8.21l-.49-4.11,3-6.46s.76-1.73-3-3a.25.25,0,0,1,0-.49l4.1-.5v-8.65a8.1,8.1,0,0,0,8.53-4.79l-8.79-15.77a22,22,0,0,1,2.07-12.4l.36-.79a6.79,6.79,0,0,0,.42-4.33c-1.31-5.59-5.11-19.87-10.48-24.1,0,0,8.92,3.24,11.51-1.81,0,0-6.21,0-9.57-3,0,0,7.24-.13,7.5-7.24,0,0-8.66,6.08-26.37-7.62,0,0-43.17-20.81-69,10.6"/><path class="cls-6" d="M289.94,272.22l214.88-5.09c6.59.68,11.59,3.29,13.82,7.42l3.71,6.86"/><path class="cls-3" d="M109.9,175.17s-15.79,16.9-4.29,49.27A58.49,58.49,0,0,0,112,237.2c3.79,5.74,9.88,15.27,10.67,18.36"/><path class="cls-3" d="M122.18,259.83s4.27-.39,5.17-4.27c0,0,5,2.2,10.47-5.94l-4.91,8.78s11.89-2.06,15.64-13.83"/><path class="cls-3" d="M153.85,241.6s0,6.72-5.3,10.6"/><path class="cls-3" d="M159.41,234.36a12.65,12.65,0,0,0-1.17,12.54"/><path class="cls-3" d="M174.79,220.15s-2-3.37-5.65-3.5a6.55,6.55,0,0,0-6.32,4.68c-1.61,5.1-3.41,16,6.54,24.41,0,0,4.89,3.61,6.51-.83"/><path class="cls-3" d="M165.87,226a6.42,6.42,0,0,1,.56-1.2,3.65,3.65,0,0,1,6-.49c.73.94,1.07,2.3.07,4.21,0,0-4.52,4,.91,8.47"/><path class="cls-3" d="M197.73,183.31s-.29,16.67-22.29,9"/><path class="cls-3" d="M178.05,200.18s11.71,6.21,18.32-4.17"/><path class="cls-3" d="M194.73,202a14.63,14.63,0,0,1-14.84,2.32"/><path class="cls-3" d="M175.87,218.5s5.67,1.26,5.87,8.24h4.84s-3-11.05,3.3-16.09"/><line class="cls-7" x1="205.29" y1="243.28" x2="205.29" y2="240.63"/><path class="cls-3" d="M127.15,256.25s1.75,12.51-3,17.67"/><path class="cls-3" d="M176.86,263.25s0,11.91,4,12.93"/><polygon class="cls-1" points="466.9 329.62 448.68 342.68 448.94 310.49 465.61 300.67 466.9 329.62"/><path class="cls-8" d="M210.3,209.32s-9.71,5.59-10.77,9.37c0,0,8.85-5.3,9.2-4.68Z"/><path class="cls-1" d="M233.73,412s-53.64,155.35-92.8,118.39"/><path class="cls-9" d="M233.73,412a393.73,393.73,0,0,1-13.89,39.42c-2.61,6.47-5.46,12.84-8.39,19.17s-6.14,12.55-9.47,18.71c-6.81,12.19-14.24,24.23-24.06,34.48a63.23,63.23,0,0,1-8,7.06,34.56,34.56,0,0,1-9.49,5,18.4,18.4,0,0,1-10.72.23,20.3,20.3,0,0,1-8.79-5.71A20.85,20.85,0,0,0,150,535a17.19,17.19,0,0,0,9.8-1,32.53,32.53,0,0,0,8.54-5.26,65.22,65.22,0,0,0,7.3-7.1,139.25,139.25,0,0,0,12.29-16.49c3.76-5.77,7.26-11.73,10.56-17.8s6.51-12.2,9.57-18.41,6-12.49,8.94-18.78C222.77,437.53,228.3,424.79,233.73,412Z"/><path class="cls-3" d="M236.7,421.59s-11.63,52.15-10.47,60.68"/><path class="cls-1" d="M122.7,331c-3.87.4-21.29,97.72,1.42,112.45"/><path class="cls-9" d="M122.7,331c-.29.11-.41.43-.54.68a6.72,6.72,0,0,0-.32.85c-.18.57-.34,1.16-.47,1.74-.29,1.18-.54,2.36-.76,3.55-.44,2.38-.84,4.76-1.18,7.16-.73,4.78-1.33,9.59-1.9,14.39s-1.08,9.6-1.46,14.42-.81,9.62-1,14.43-.44,9.63-.46,14.44.12,9.61.46,14.39a79.79,79.79,0,0,0,2.21,14.13,33.63,33.63,0,0,0,2.48,6.67,16.59,16.59,0,0,0,4.4,5.6,15.41,15.41,0,0,1-5.35-5,31.67,31.67,0,0,1-3.39-6.63,67.91,67.91,0,0,1-3.46-14.4,131.68,131.68,0,0,1-1.13-14.7c-.1-4.9,0-9.8.25-14.68s.7-9.76,1.27-14.61,1.25-9.69,2.14-14.49,1.87-9.58,3.06-14.32c.63-2.36,1.27-4.72,2-7,.38-1.17.78-2.32,1.24-3.46.24-.57.49-1.13.77-1.68.15-.27.29-.54.47-.8S122.39,331.11,122.7,331Z"/><path class="cls-3" d="M97.88,328.33s7.59,3.49,29.58-8.92c0,0,27-13.57,42.16-15.12"/><path class="cls-3" d="M397.41,382.79l8.73-4.27a18,18,0,0,0,9.41-21.11c-2.58-9-7.47-19.79-16.64-26.31a12.27,12.27,0,0,0-8.36-2.2,14,14,0,0,0-5.74,1.61,5.92,5.92,0,0,1-5.26.46c-4.37-1.66-11.68-3.22-15.47,2.79,0,0-8,5.39-16.89.88a3.61,3.61,0,0,0-1.23-.39c-1.67-.22-6.06-.61-8,.74a4,4,0,0,1-2.57.76l-25.46-2.08a3.92,3.92,0,0,1-2.07-.82c-1.57-1.23-5.39-3.31-10.64-.25,0,0-5,1.93-10.86-2.91,0,0-1.22-4.9-11.47-2.07a5,5,0,0,1-3.48-.32c-7.91-3.7-39.87-18.33-45.23-15.45,0,0-7.8-6.46-25.38-8.85"/><path class="cls-1" d="M220,314.18s-33.9,40.13,6.12,84.14"/><path class="cls-9" d="M220,314.18a75.07,75.07,0,0,0-5.3,10.17A77,77,0,0,0,211,335a63.43,63.43,0,0,0-2.13,22.15c.09,1.86.39,3.69.65,5.53s.72,3.65,1.23,5.44,1.07,3.58,1.62,5.36l1,2.62.5,1.31.58,1.28a110.22,110.22,0,0,0,11.7,19.6,67.37,67.37,0,0,1-14.5-18.22,54.34,54.34,0,0,1-2.58-5.32c-.68-1.85-1.47-3.67-2-5.59a59.51,59.51,0,0,1-1.44-5.78c-.31-2-.66-3.92-.79-5.91a58.41,58.41,0,0,1,8.15-34A48.48,48.48,0,0,1,220,314.18Z"/><path class="cls-1" d="M208,356.25s40.32-3.75,72.12-27.47"/><path class="cls-9" d="M208,356.25c6.35-1.56,12.59-3.23,18.78-5.05s12.29-3.88,18.31-6.1c3-1.06,6-2.32,9-3.49,1.49-.59,2.94-1.28,4.42-1.91s2.94-1.28,4.39-2,2.89-1.39,4.36-2.06l4.29-2.24,2.18-1.09c.7-.4,1.4-.81,2.11-1.2,1.42-.79,2.84-1.58,4.31-2.33-1.2,1.11-2.44,2.18-3.69,3.25-.61.54-1.25,1.06-1.88,1.58l-2,1.46-4,2.84c-1.4.88-2.82,1.7-4.22,2.56-.71.42-1.41.85-2.13,1.26L260,342.85c-1.47.74-2.92,1.53-4.41,2.22l-4.52,2c-1.5.67-3.06,1.19-4.6,1.79a123.46,123.46,0,0,1-18.94,5.37A94.33,94.33,0,0,1,208,356.25Z"/><path class="cls-1" d="M306.3,333.56S276.25,365.94,216.54,377"/><path class="cls-9" d="M306.3,333.56a96.39,96.39,0,0,1-18.85,17,147.49,147.49,0,0,1-22,12.87c-1.92.91-3.9,1.69-5.85,2.55l-2.93,1.25c-1,.38-2,.76-3,1.11l-6,2.14c-2,.63-4.07,1.21-6.12,1.79-4.05,1.28-8.25,2-12.38,2.93l-1.56.31-1.58.23-3.14.44c-2.1.28-4.2.55-6.3.77,2-.65,4-1.26,6.06-1.85l3-.87,1.52-.43,1.49-.51,6-1.95c1-.34,2-.61,3-1l2.95-1.08q2.94-1.08,5.89-2.12l5.8-2.36,2.91-1.15,2.86-1.27c1.89-.87,3.82-1.67,5.69-2.58l5.63-2.72c1.88-.9,3.67-2,5.53-2.91s3.66-2,5.47-3l2.72-1.56,2.67-1.62A180.93,180.93,0,0,0,306.3,333.56Z"/><path class="cls-1" d="M338.68,336.86S303,376.8,239.8,384.17"/><path class="cls-9" d="M338.68,336.86a108,108,0,0,1-20.46,19.19c-3.74,2.84-7.72,5.35-11.71,7.84-2,1.18-4.1,2.32-6.15,3.47s-4.2,2.12-6.3,3.18c-1.07.49-2.11,1-3.2,1.49l-3.26,1.35-3.26,1.36-1.63.67c-.55.21-1.11.39-1.67.58l-6.69,2.24c-2.21.79-4.53,1.25-6.79,1.86l-3.42.87-1.7.42-1.74.31-6.93,1.2c-2.3.43-4.65.58-7,.78s-4.66.37-7,.5c2.28-.57,4.55-1.09,6.82-1.6s4.55-.9,6.76-1.61c4.47-1.23,8.95-2.33,13.31-3.87a198.84,198.84,0,0,0,25.65-10.16c2.06-1,4.16-2,6.2-3s4-2.22,6.07-3.29,4-2.31,6-3.47l1.49-.88,1.45-.93,2.93-1.85A189.42,189.42,0,0,0,338.68,336.86Z"/><path class="cls-3" d="M357.29,356.25s-10.47,8.34-8.14,18.42c0,0,4.65,13.57-2.71,14.93"/><path class="cls-3" d="M364.47,333.56c3.34-.48,7.9,2.73,12,8.05,9,11.71,15.55,33.66,1.48,49.07"/><path class="cls-3" d="M364.47,388.82s20.85-11.83,12-47.21"/><path class="cls-3" d="M517.24,295.56l3.77-1.84a6.33,6.33,0,0,0,3.81-5.35,8.28,8.28,0,0,0-.56-3.65l-1.91-3.31"/><path class="cls-3" d="M517.63,300.41h0c3.39-1.34,6-4.36,5.26-7.92v-.05"/><path class="cls-3" d="M526.87,269.05a7.38,7.38,0,0,0,.5-1.92,4.63,4.63,0,0,0-6.12-4.9l-26.88,9.23S483.75,280.7,480.71,289a10.35,10.35,0,0,1-4.47,5.25l-34.42,20.45a55.2,55.2,0,0,1-11.72,5.23c-9.26,2.89-26.42,8.71-29,12.88"/><path class="cls-3" d="M520.33,299.35s1.51,3.67-1.6,4.68l-26,8.44a33,33,0,0,0-9.31,4.78l-67.88,50"/><path class="cls-3" d="M263.84,269.26s.1,9.5,8.92,8.21l10.34-6c9.31-4.2,10,2.2,10,2.2l-16.93,12.53v0a22.21,22.21,0,0,1-15.5,14.92l-4.53,1.2-14,11.83"/><path class="cls-3" d="M109.71,545.72s-4.46,5.18-3.88,43.18"/><path class="cls-3" d="M251.82,535.78s12.6,29.16,8.38,52.81"/><path class="cls-8" d="M210,220.89s-5.68-2-7.78,3.33l2.16,3S204.42,224.86,210,220.89Z"/><polygon class="cls-3" points="554.08 169.06 542.45 377.09 750.13 400.39 787.9 404.62 796.63 155.97 554.08 169.06"/><polygon class="cls-3" points="749.32 408.5 749.94 400.29 581.11 381.35 581.11 388.82 749.32 408.5"/><polygon class="cls-3" points="745.37 408.04 764.63 562.65 756.32 562.01 734.1 406.72 745.37 408.04"/><polygon class="cls-3" points="595 390.44 565.26 528.67 556.95 528.03 585.63 389.35 595 390.44"/><polygon class="cls-3" points="685.14 517.94 679.35 517.94 679.35 400.31 685.14 400.99 685.14 517.94"/><polyline class="cls-3" points="731.2 333.94 734.07 198.04 616.96 198.04 613.07 326.97"/><path class="cls-3" d="M689.88,242a2.17,2.17,0,0,1,0,.26,2.82,2.82,0,1,1-5.62,0,1.1,1.1,0,0,1,0-.26"/><line class="cls-3" x1="634.28" y1="198.04" x2="634.28" y2="217.69"/><path class="cls-3" d="M635.58,229.84v5.3a10.48,10.48,0,0,0,6.27,9.6l4.32,1.9"/><polyline class="cls-3" points="648.24 198.04 646.3 249.99 646.17 253.36"/><polyline class="cls-3" points="632.47 328.33 613.07 328.33 613.07 339.45 587.75 337.64"/><polyline class="cls-3" points="577.15 336.86 568.37 336.86 571.47 248.29 646.3 249.99"/><rect class="cls-3" x="581.81" y="248.53" width="16.67" height="5.74"/><rect class="cls-3" x="577.93" y="254.27" width="24.69" height="3.36"/><polygon class="cls-3" points="600.56 311.37 573.47 311.37 573.91 299.25 601 299.25 600.56 311.37"/><polygon class="cls-3" points="600.58 311.37 573.82 311.37 573.08 330.95 599.84 330.95 600.58 311.37"/><polyline class="cls-3" points="616.51 278.24 629.92 278.24 629.92 328.33 615.04 328.33"/><rect class="cls-3" x="637.51" y="292.58" width="4.91" height="18.89"/><rect class="cls-3" x="642.43" y="290.59" width="7.24" height="21.59" transform="translate(1292.09 602.76) rotate(180)"/><rect class="cls-3" x="677.58" y="290.59" width="31.41" height="19.9"/><rect class="cls-3" x="708.99" y="297.02" width="9.5" height="9.5" transform="translate(1427.48 603.53) rotate(180)"/><rect class="cls-3" x="670.96" y="294.01" width="6.62" height="11.39" transform="translate(1348.54 599.42) rotate(180)"/><rect class="cls-3" x="685.86" y="282.06" width="4.54" height="3.05" transform="translate(1376.25 567.17) rotate(180)"/><rect class="cls-3" x="697.62" y="282.06" width="4.54" height="3.05" transform="translate(1399.77 567.17) rotate(180)"/><rect class="cls-3" x="697.62" y="315.97" width="4.54" height="3.05" transform="translate(1399.77 634.99) rotate(180)"/><rect class="cls-3" x="684.05" y="315.97" width="4.54" height="3.05" transform="translate(1372.63 634.99) rotate(180)"/><rect class="cls-3" x="684.27" y="198.04" width="16.14" height="16.14"/><rect class="cls-3" x="704.44" y="198.04" width="6.3" height="16.14"/><rect class="cls-3" x="712.19" y="198.04" width="11.73" height="16.14"/><polyline class="cls-3" points="679.35 377.96 668.23 376.85 668.47 356.25 626.59 352.95 624.46 373.31 632.47 373.7"/><line class="cls-3" x1="635.06" y1="373.89" x2="646.56" y2="374.6"/><line class="cls-3" x1="650.83" y1="375.77" x2="660.52" y2="376.25"/><line class="cls-3" x1="660" y1="331.45" x2="687.61" y2="332.62"/><line class="cls-3" x1="693.25" y1="333.44" x2="711.5" y2="333.74"/><line class="cls-3" x1="713.3" y1="333.64" x2="731.55" y2="333.94"/><line class="cls-3" x1="556.99" y1="177.62" x2="790.42" y2="166.76"/><path class="cls-3" d="M734.06,242v20.42H667.63V242h16.66a1.1,1.1,0,0,0,0,.26,2.82,2.82,0,1,0,5.62,0,2.17,2.17,0,0,0,0-.26Z"/><path class="cls-3" d="M506,275.4l18.37-6a4.62,4.62,0,0,1,5.86,2.28h0a4.61,4.61,0,0,1-1.26,5.63l-15.67,9.55"/></svg>