<svg xmlns="http://www.w3.org/2000/svg" viewBox="0 0 1161.62 601.49"><defs><style>.cls-1{isolation:isolate;}.cls-10,.cls-2,.cls-3,.cls-4,.cls-5,.cls-6,.cls-9{fill:#e3d9cd;}.cls-10,.cls-2,.cls-4,.cls-5,.cls-6,.cls-9{stroke:#623111;}.cls-2,.cls-4,.cls-5,.cls-6,.cls-9{stroke-miterlimit:10;}.cls-3{mix-blend-mode:multiply;}.cls-10,.cls-4,.cls-5,.cls-6,.cls-9{stroke-width:2px;}.cls-10,.cls-5,.cls-6,.cls-7{opacity:0.5;}.cls-10,.cls-5{mix-blend-mode:overlay;}.cls-8,.cls-9{opacity:0.2;}.cls-10{stroke-linejoin:round;}</style></defs><g class="cls-1"><g id="Layer_1" data-name="Layer 1"><path class="cls-2" d="M339.9,128.61l3.14,4,3.21,4,6.47,8c4.34,5.3,8.68,10.6,13.07,15.81s8.83,10.37,13.28,15.42q3.35,3.78,6.71,7.42c2.24,2.41,4.5,4.76,6.72,6.94,1.1,1.09,2.2,2.14,3.24,3.08s2.05,1.8,2.69,2.31l.34.31a.23.23,0,0,0-.13,0s0,0,.07.07a7.63,7.63,0,0,0,1.27.61c1.13.47,2.55.95,4,1.41,2.95.93,6.14,1.79,9.37,2.61s6.52,1.6,9.84,2.35c6.63,1.53,13.35,3,20.09,4.34l10.13,2.06,10.12,2,.1,0a9.69,9.69,0,0,1-2.25,19.19c-14.09-.54-28-1.4-42.16-2.68-3.54-.34-7.09-.71-10.68-1.15s-7.21-.93-11-1.6c-1.91-.35-3.85-.72-6-1.28-1.11-.3-2.23-.6-3.64-1.11-.36-.13-.75-.29-1.13-.44l-1.3-.58c-.66-.32-1.37-.67-1.92-1-2.35-1.27-4.15-2.43-5.89-3.59s-3.31-2.3-4.86-3.44c-3.1-2.28-6-4.57-8.84-6.87s-5.61-4.63-8.34-7c-5.47-4.65-10.77-9.39-16-14.16S329.15,176.07,324,171.2l-7.63-7.33-3.8-3.69-3.83-3.77A20.91,20.91,0,1,1,338.1,126.6a21.68,21.68,0,0,1,1.65,1.82Z"/><path class="cls-2" d="M341.41,188.69c9.29-11.72,28.07-33.26,28.1-33.31-12.64-14.45-41.4-51.28-62-28.81C283.63,152.73,327.86,177.1,341.41,188.69Z"/><path class="cls-2" d="M479.52,235.2c6.23,2.94,11.89,5.89,18.66,6.72,9.57,1.18,7.25-4.83,5.87-5.48,1.44.12,2.37.06,3.82.06,2.83,0,4.43-5.44.4-6.14,5.89,0,8.79-6.58,2.29-7.45,4.86.24,3.25-6.2.05-6.72,1.07-.34.85-2.19-.05-2.9s-2.09-.82-3.05-1.43c-1.55-1-2.17-3.06-3.47-4.41-1.83-1.91-4.7-2.06-7.23-1.71-5.71.81-11,3.57-16.47,5.54s-8.51,1-17.88-.2c.14,6.57-2.54,16.74-2.58,19.33C467.93,231.12,473.12,232.2,479.52,235.2Z"/><path class="cls-2" d="M385.53,87.55a52.18,52.18,0,0,0-1,7,6.6,6.6,0,0,0,0,1.43c.46,2.44,1.07,6.4.21,7.86a5.77,5.77,0,0,1-2.74,2.4c-3.88,1.74-9.85.34-14.25,1.36h0c-3.88.9-8.38,3.84-8.42,13.77,0,4.61-.94,17-1.16,23.48-1.42-.58-13.5-.81-14.85-2.06-52.06-8.34-35.17-15.28-35.14-15.31,2.89-4.24,21-30.13,21.19-35v-.21c.16-11-10.59-19.12-13.18-29.81-2.53-10.42,3.61-21.63,12.73-27.28S349.36,28.61,360,30.1c5.89.82,11.87,2.41,16.57,6,5.12,4,7.17,9.78,8.11,15.87.18,1.14.31,2.29.43,3.43.43,4.46-.13,5.72-.23,10-.15,6.24,6.72,11.1,6.82,13.94.13,3.86-4.45,3.2-4.9,4.15A19.07,19.07,0,0,0,385.53,87.55Z"/><path class="cls-3" d="M349.25,87.15c1.39,5.82,5.59,10.56,10.11,14.49a46.86,46.86,0,0,0,8.34,5.92h0c4.4-1,10.38.38,14.25-1.36-.79-.13-2.2,0-2.8,0a31.93,31.93,0,0,1-3.24-.44,37.18,37.18,0,0,1-12.29-4.69A46,46,0,0,1,349.25,87.15Z"/><path class="cls-2" d="M371,47.32c-2.84-.86-5.88-1.71-8.73-.89-4.49,1.29-6.88,6.22-7.66,10.82s-.54,9.43-2.28,13.76c-.25.63-.68,1.33-1.35,1.35s-1.24-.89-1.45-1.66c-.77-2.74-1.27-5.66-3-7.93s-5.2-3.55-7.44-1.8c-2,1.55-2,4.61-1.16,7s2.37,4.5,2.93,7c.83,3.66-.63,7.53-3,10.45s-5.51,5-8.62,7.14c-4.08-7.79-12.88-20-14.13-29-1.21-8.71.65-12.87,3.7-21.12,1.27-3.44,3.79-7.07,7.46-7.16-.81-3.83,1.61-7.78,4.93-9.84s7.35-2.6,11.25-2.8c9.73-.51,19.72.81,28.4,5.22,4.21,2.14,6.1,6.49,9.86,9.35,2.1,1.59,3.43,1.32,4.93,3.49a8.65,8.65,0,0,1,1.18,7.49c-1.13,3.49-1.17,4.8-4,3.13C379.29,49.24,374.88,48.48,371,47.32Z"/><path class="cls-2" d="M356.85,18.51l-3.8-.4a1.55,1.55,0,0,1-1.37-1.7h0a1.54,1.54,0,0,1,1.7-1.38l3.8.4a1.56,1.56,0,0,1,1.38,1.7h0A1.56,1.56,0,0,1,356.85,18.51Z"/><path class="cls-2" d="M391.81,58.73c-.8-18.71-16.12-39.94-35.63-42-20.16-2.11-38.79,15.89-42.7,35C313.48,51.75,391.22,58.77,391.81,58.73Z"/><path class="cls-2" d="M388.94,46.09c6.33.42,32.51,4.24,27.84,9.06a20.21,20.21,0,0,1-12.43,5.42c-7.16.34-43.44-4.55-43.44-4.55S384.38,54.93,388.94,46.09Z"/><path class="cls-2" d="M357.42,287.45c-.32,5.24,3.45,11.19,2.68,12.69-17.54,3.2-70.22-2.06-83.43-5.5-1.64-4.05.21-37.88,1.74-44.91,8.35-38.54-7-63.41,8.76-106.94,4-11,13.78-27.57,27.6-31.92,20.33-6.41,54,30.7,55.28,53.46.65,11.58-6.31,45.17-8.08,65.43C361.3,237.45,359.16,258.7,357.42,287.45Z"/><path class="cls-2" d="M319.23,105.46l-2.64,4.88s33.7,10.8,43.82,31.7c0,0,3.24-11.36-10.61-25.34-5.15-5.2-18.65-10.54-25.24-12.94A4.39,4.39,0,0,0,319.23,105.46Z"/><rect class="cls-2" x="352.9" y="535.89" width="22.25" height="25.82" transform="matrix(0.59, -0.81, 0.81, 0.59, -293.84, 518.69)"/><path class="cls-2" d="M422.6,577.27a10.58,10.58,0,0,1-4.39,3.71c-2.14,1.08-24.22,3.17-36.34,3.45-4.05.09-7,0-7.71-.43-1.08-.62-2.87-5.72-6.15-5.7s-6.77,6.43-6.77,6.43-24,0-26.5-4.41c-1-1.85-.85-5.35-.1-9,.21-1,.47-2.1.76-3.13,1.84-6.46,5-19.11,10.62-19.32,2-.09,11.74,12,19.44,9,4.53-1.8,3.34-10.65,8.27-13.72,5.4-3.33,7.2.89,10.74,6.9l.66,1.11a49.56,49.56,0,0,0,3.56,5.16q.39.5.81,1a35.06,35.06,0,0,0,3.81,3.8l.16.12a11,11,0,0,0,1,.77,22.63,22.63,0,0,0,5,2.44c.41.15.82.29,1.24.42,4.52,1.47,9.7,2.28,13.95,3.25,4.61,1.07,8.15,2.35,8.59,4.88A4.8,4.8,0,0,1,422.6,577.27Z"/><path class="cls-2" d="M422.6,577.27a10.64,10.64,0,0,1-4.39,3.71c-2.86,1.46-41.19,4.66-44,3-1.08-.62-2.87-5.72-6.15-5.7s-6.77,6.43-6.77,6.43-24,0-26.5-4.41c-1.33-2.38-.65-7.48.66-12.13a12.1,12.1,0,0,1,4.65.33c7.28,1.87,14.53,3.74,21.94,5.11a250.91,250.91,0,0,0,44.45,4.13C411.83,577.78,417.23,577.62,422.6,577.27Z"/><path class="cls-2" d="M400.72,565.82l-.06.13c-.13.2-2.58,3.79-2.61,3.82a.62.62,0,0,1-.53.28.6.6,0,0,1-.36-.12A.64.64,0,0,1,397,569c.13-.18,2.05-3,2.48-3.64C399.89,565.55,400.3,565.69,400.72,565.82Z"/><path class="cls-2" d="M394.5,563l0,0a34.47,34.47,0,0,0-2.23,3.13.63.63,0,0,1-.55.3.58.58,0,0,1-.33-.1.65.65,0,0,1-.2-.89,37,37,0,0,1,2.31-3.24A11,11,0,0,0,394.5,563Z"/><path class="cls-2" d="M389.5,558.27h0a27.64,27.64,0,0,0-3,2.94.66.66,0,0,1-.5.23.67.67,0,0,1-.4-.16.64.64,0,0,1-.07-.9,27.73,27.73,0,0,1,3.13-3.09l0,0Q389.08,557.78,389.5,558.27Z"/><path class="cls-2" d="M385.13,552.12c-1,.87-2,1.82-3,2.9a.66.66,0,0,1-.47.19.62.62,0,0,1-.44-.18.65.65,0,0,1,0-.91c1.09-1.12,2.12-2.12,3.15-3l.12-.08Z"/><path class="cls-2" d="M389,411.14c2.06,25.94,5.53,79.15,0,138.78-14.55,0-32.82-.12-50,1.13,6.82-60.76-3.92-125.43-5-130.84-5.93-29-65.27-76.22-65.47-142.16-.07-23.76,5.53-34,11-76.63,3.32,0,13.52-.24,15.16,0-.12,38.2-7.89,66,20.62,65.16,40.13-1.19,31.16-62.94,30.7-84,6.18,2.65,16.35,4.74,26,4.29-5.48,50.1-13,68.36-14.81,96.17C356.48,294.28,386.81,384,389,411.14Z"/><path class="cls-2" d="M283.84,204.31c-.77-27.14,5.38-83.82,35.66-82.28,37.75,1.91,39.79,36.22,38.64,66l-6.95-1c1.1-28.72-3.34-57-30.06-59.76-30-3.08-29.15,56-27.55,77.89Z"/><rect class="cls-4" x="505.19" y="242.43" width="9.36" height="189.32"/><rect class="cls-5" x="505.19" y="242.43" width="2.62" height="189.32"/><rect class="cls-5" x="511.93" y="242.43" width="2.62" height="189.32"/><path class="cls-5" d="M522.31,259.16l3,7.14a8.36,8.36,0,1,1-15.46,6.38l-2.95-7.14a7.45,7.45,0,0,0,9.71,4l1.72-.72A7.43,7.43,0,0,0,522.31,259.16Z"/><path class="cls-5" d="M520.26,277.38a8.34,8.34,0,0,1-10.46-4.7l-25-60.61a8.36,8.36,0,0,1,4.1-10.72,4.78,4.78,0,0,0-2.15,6l27.76,67.26A4.78,4.78,0,0,0,520.26,277.38Z"/><path class="cls-5" d="M500.24,205.69l25,60.61a8.34,8.34,0,0,1-4.1,10.71,4.76,4.76,0,0,0,2.15-6l-27.77-67.27a4.76,4.76,0,0,0-5.76-2.75,8.36,8.36,0,0,1,10.46,4.71Z"/><path class="cls-4" d="M568.1,590.41A33,33,0,1,0,521.5,587,33,33,0,0,0,568.1,590.41Z"/><path class="cls-4" d="M562.74,584.2a24.84,24.84,0,1,0-35-2.59A24.85,24.85,0,0,0,562.74,584.2Z"/><circle class="cls-4" cx="546.52" cy="565.38" r="12.29" transform="translate(-86.07 98.3) rotate(-9.53)"/><path class="cls-4" d="M551.37,571a7.43,7.43,0,1,0-10.47-.78A7.43,7.43,0,0,0,551.37,571Z"/><path class="cls-4" d="M550.06,569.48a5.41,5.41,0,1,0-7.64-.56A5.41,5.41,0,0,0,550.06,569.48Z"/><path class="cls-6" d="M546.26,570.78a5.41,5.41,0,0,1-2.61-9.44,5.27,5.27,0,0,1,3.73-1.3,5.41,5.41,0,0,0-5,8.88A5.3,5.3,0,0,0,546.26,570.78Z"/><path class="cls-6" d="M550.06,569.48a5.4,5.4,0,0,0,.56-7.63,5.28,5.28,0,0,0-3.84-1.86,5.41,5.41,0,0,1-1.12,10.74A5.41,5.41,0,0,0,550.06,569.48Z"/><path class="cls-4" d="M540.11,572.94a1.53,1.53,0,1,0-2.17-.16A1.53,1.53,0,0,0,540.11,572.94Z"/><path class="cls-6" d="M539,573.31a1.54,1.54,0,0,1-.74-2.68,1.56,1.56,0,0,1,1.06-.37,1.56,1.56,0,0,0-1.25.36,1.53,1.53,0,0,0-.16,2.16A1.5,1.5,0,0,0,539,573.31Z"/><path class="cls-6" d="M540.11,572.94a1.53,1.53,0,0,0,.16-2.16,1.48,1.48,0,0,0-1.09-.53,1.53,1.53,0,0,1,.74,2.67,1.47,1.47,0,0,1-1.06.37A1.53,1.53,0,0,0,540.11,572.94Z"/><path class="cls-4" d="M554.94,560.15a1.53,1.53,0,0,0,.16-2.16,1.53,1.53,0,0,0-2.32,2A1.53,1.53,0,0,0,554.94,560.15Z"/><path class="cls-6" d="M553.86,560.52a1.53,1.53,0,0,1-.9-.51,1.55,1.55,0,0,1,.16-2.17,1.58,1.58,0,0,1,1.06-.37,1.54,1.54,0,0,0-1.24.36,1.52,1.52,0,0,0-.16,2.16A1.48,1.48,0,0,0,553.86,560.52Z"/><path class="cls-6" d="M554.94,560.15a1.53,1.53,0,0,0,.16-2.16,1.47,1.47,0,0,0-1.09-.53,1.58,1.58,0,0,1,.91.51,1.54,1.54,0,0,1-.16,2.16,1.49,1.49,0,0,1-1.07.37A1.52,1.52,0,0,0,554.94,560.15Z"/><path class="cls-4" d="M541.1,559.09a1.53,1.53,0,1,0-2.17-.15A1.53,1.53,0,0,0,541.1,559.09Z"/><path class="cls-6" d="M540,559.46a1.53,1.53,0,0,1-.74-2.67,1.49,1.49,0,0,1,1.06-.37,1.54,1.54,0,0,0-1.41,2.52A1.51,1.51,0,0,0,540,559.46Z"/><path class="cls-6" d="M541.1,559.09a1.53,1.53,0,0,0,.16-2.16,1.56,1.56,0,0,0-1.09-.53,1.49,1.49,0,0,1,.9.52,1.53,1.53,0,0,1-1.22,2.53A1.54,1.54,0,0,0,541.1,559.09Z"/><path class="cls-4" d="M554,574a1.54,1.54,0,1,0-2.17-.16A1.55,1.55,0,0,0,554,574Z"/><path class="cls-6" d="M552.87,574.37a1.49,1.49,0,0,1-.9-.52,1.53,1.53,0,0,1,.16-2.16,1.49,1.49,0,0,1,1.06-.37,1.57,1.57,0,0,0-1.25.35,1.54,1.54,0,0,0,.93,2.7Z"/><path class="cls-6" d="M554,574a1.55,1.55,0,0,0,.16-2.17,1.51,1.51,0,0,0-1.09-.52,1.53,1.53,0,0,1,.74,2.67,1.46,1.46,0,0,1-1.06.37A1.53,1.53,0,0,0,554,574Z"/><g class="cls-7"><path class="cls-4" d="M545.73,590.21a24.85,24.85,0,0,1,3.66-49.5,24.84,24.84,0,1,0-3.66,49.5Z"/></g><g class="cls-8"><path class="cls-4" d="M562.74,584.2a24.84,24.84,0,0,0-15.43-43.65,24.85,24.85,0,0,1-3.66,49.51A24.74,24.74,0,0,0,562.74,584.2Z"/></g><path class="cls-9" d="M545.2,598.38a33,33,0,0,1,5.31-65.79,33,33,0,1,0-5.31,65.79Z"/><path class="cls-9" d="M568.1,590.41a33,33,0,0,0-20.28-58,33,33,0,0,1-5.13,65.8A32.91,32.91,0,0,0,568.1,590.41Z"/><rect class="cls-4" x="935.59" y="584.15" width="46.09" height="4.99"/><rect class="cls-5" x="935.59" y="584.15" width="46.09" height="1.5"/><rect class="cls-5" x="935.59" y="587.63" width="46.09" height="1.5"/><path class="cls-4" d="M954.58,587.93a18.42,18.42,0,1,1-29.3-21.29c.2-.2.42-.39.64-.58a18.41,18.41,0,0,1,26,1.92,17.73,17.73,0,0,1,2,2.85A18.4,18.4,0,0,1,954.58,587.93Z"/><path class="cls-4" d="M947,590.5a13.85,13.85,0,1,0-19.53-1.45A13.85,13.85,0,0,0,947,590.5Z"/><path class="cls-4" d="M945.22,588.44a11.14,11.14,0,1,0-15.7-1.16A11.14,11.14,0,0,0,945.22,588.44Z"/><circle class="cls-4" cx="937.95" cy="580.01" r="6.85" transform="translate(88.93 1283.8) rotate(-71.39)"/><path class="cls-4" d="M940.65,583.14a4.14,4.14,0,1,0-5.84-.43A4.14,4.14,0,0,0,940.65,583.14Z"/><path class="cls-4" d="M939.92,582.29a3,3,0,1,0-4.26-.31A3,3,0,0,0,939.92,582.29Z"/><path class="cls-6" d="M937.8,583a3,3,0,0,1-1.45-5.27,2.93,2.93,0,0,1,2.08-.72,3,3,0,1,0-.63,6Z"/><path class="cls-6" d="M939.92,582.29a3,3,0,0,0,.31-4.26,2.92,2.92,0,0,0-2.14-1,2.94,2.94,0,0,1,1.78,1,3,3,0,0,1-.31,4.25,3.06,3.06,0,0,1-2.09.73A3,3,0,0,0,939.92,582.29Z"/><path class="cls-4" d="M934.37,584.22a.86.86,0,0,0,.09-1.21.85.85,0,0,0-1.2-.09.86.86,0,0,0-.09,1.21A.85.85,0,0,0,934.37,584.22Z"/><path class="cls-6" d="M933.77,584.42a.82.82,0,0,1-.5-.28.86.86,0,0,1,.09-1.21.82.82,0,0,1,.59-.2.83.83,0,0,0-.69.19.86.86,0,0,0-.09,1.21A.82.82,0,0,0,933.77,584.42Z"/><path class="cls-6" d="M934.37,584.22a.85.85,0,0,0-.51-1.5.87.87,0,0,1,.5.28.86.86,0,0,1-.09,1.21.87.87,0,0,1-.59.21A.88.88,0,0,0,934.37,584.22Z"/><path class="cls-4" d="M942.64,577.09a.86.86,0,0,0,.09-1.21.85.85,0,0,0-1.2-.09.86.86,0,0,0-.09,1.21A.85.85,0,0,0,942.64,577.09Z"/><path class="cls-6" d="M942,577.29a.79.79,0,0,1-.5-.28.86.86,0,0,1,.09-1.21.82.82,0,0,1,.59-.2.83.83,0,0,0-.69.19.86.86,0,0,0-.09,1.21A.82.82,0,0,0,942,577.29Z"/><path class="cls-6" d="M942.64,577.09a.85.85,0,0,0-.51-1.5.87.87,0,0,1,.5.28.86.86,0,0,1-.09,1.21.87.87,0,0,1-.59.21A.88.88,0,0,0,942.64,577.09Z"/><path class="cls-4" d="M934.93,576.5a.86.86,0,0,0-1.12-1.3.86.86,0,0,0,1.12,1.3Z"/><path class="cls-6" d="M934.33,576.71a.91.91,0,0,1-.51-.29.87.87,0,0,1,.09-1.21.83.83,0,0,1,.59-.2.84.84,0,0,0-.69.19.86.86,0,0,0-.09,1.21A.87.87,0,0,0,934.33,576.71Z"/><path class="cls-6" d="M934.93,576.5a.87.87,0,0,0,.09-1.21.88.88,0,0,0-.61-.29.84.84,0,0,1,.5.28.86.86,0,0,1-.09,1.21.87.87,0,0,1-.59.21A.91.91,0,0,0,934.93,576.5Z"/><path class="cls-4" d="M942.09,584.81a.86.86,0,1,0-1.12-1.3.87.87,0,0,0-.09,1.21A.86.86,0,0,0,942.09,584.81Z"/><path class="cls-6" d="M941.49,585a.84.84,0,0,1-.5-.28.86.86,0,0,1,.09-1.21.82.82,0,0,1,.59-.2.86.86,0,0,0-.7.19.87.87,0,0,0-.09,1.21A.83.83,0,0,0,941.49,585Z"/><path class="cls-6" d="M942.09,584.81a.85.85,0,0,0-.52-1.5.9.9,0,0,1,.51.28.87.87,0,0,1-.09,1.21.82.82,0,0,1-.59.2A.84.84,0,0,0,942.09,584.81Z"/><g class="cls-7"><path class="cls-4" d="M937.51,593.85a13.85,13.85,0,0,1,2-27.6,13.85,13.85,0,1,0-2,27.6Z"/></g><g class="cls-8"><path class="cls-4" d="M947,590.5a13.85,13.85,0,0,0-8.6-24.34,13.85,13.85,0,0,1-2,27.6A13.78,13.78,0,0,0,947,590.5Z"/></g><path class="cls-9" d="M937.21,598.4a18.42,18.42,0,0,1,3-36.68,18.41,18.41,0,1,0-3,36.68Z"/><path class="cls-9" d="M950,594a18.41,18.41,0,0,0-11.31-32.35,18.42,18.42,0,0,1-2.86,36.69A18.42,18.42,0,0,0,950,594Z"/><path class="cls-4" d="M996,587.78a18.42,18.42,0,1,1-29.22-21.28c.16-.15.32-.3.49-.44a18.41,18.41,0,0,1,26,1.92,17.9,17.9,0,0,1,1.91,2.67A18.41,18.41,0,0,1,996,587.78Z"/><path class="cls-4" d="M988.37,590.5a13.85,13.85,0,1,0-19.53-1.45A13.86,13.86,0,0,0,988.37,590.5Z"/><path class="cls-4" d="M986.6,588.44a11.14,11.14,0,1,0-15.71-1.16A11.14,11.14,0,0,0,986.6,588.44Z"/><circle class="cls-4" cx="979.33" cy="580.01" r="6.85"/><path class="cls-4" d="M982,583.14a4.14,4.14,0,1,0-5.84-.43A4.14,4.14,0,0,0,982,583.14Z"/><path class="cls-4" d="M981.3,582.29A3,3,0,1,0,977,582,3,3,0,0,0,981.3,582.29Z"/><path class="cls-6" d="M979.18,583a3,3,0,0,1-1.45-5.27,2.92,2.92,0,0,1,2.08-.72,3,3,0,1,0-.63,6Z"/><path class="cls-6" d="M981.3,582.29a3,3,0,0,0,.31-4.26,2.92,2.92,0,0,0-2.14-1,2.94,2.94,0,0,1,1.78,1,3,3,0,0,1-.31,4.25,3.06,3.06,0,0,1-2.09.73A3,3,0,0,0,981.3,582.29Z"/><path class="cls-4" d="M975.75,584.22a.86.86,0,0,0,.09-1.21.85.85,0,0,0-1.2-.09.86.86,0,0,0-.09,1.21A.85.85,0,0,0,975.75,584.22Z"/><path class="cls-6" d="M975.15,584.42a.82.82,0,0,1-.5-.28.86.86,0,0,1,.09-1.21.82.82,0,0,1,.59-.2.83.83,0,0,0-.69.19.86.86,0,0,0-.09,1.21A.82.82,0,0,0,975.15,584.42Z"/><path class="cls-6" d="M975.75,584.22a.85.85,0,0,0-.51-1.5.87.87,0,0,1,.5.28.86.86,0,0,1-.09,1.21.87.87,0,0,1-.59.21A.88.88,0,0,0,975.75,584.22Z"/><path class="cls-4" d="M984,577.09a.86.86,0,0,0,.09-1.21.85.85,0,0,0-1.2-.09.86.86,0,0,0-.09,1.21A.84.84,0,0,0,984,577.09Z"/><path class="cls-6" d="M983.42,577.29a.79.79,0,0,1-.5-.28.86.86,0,0,1,.09-1.21.82.82,0,0,1,.59-.2.83.83,0,0,0-.69.19.86.86,0,0,0-.09,1.21A.8.8,0,0,0,983.42,577.29Z"/><path class="cls-6" d="M984,577.09a.85.85,0,0,0-.52-1.5.87.87,0,0,1,.51.28.86.86,0,0,1-.09,1.21.87.87,0,0,1-.59.21A.88.88,0,0,0,984,577.09Z"/><path class="cls-4" d="M976.31,576.5a.86.86,0,0,0-1.12-1.3.86.86,0,0,0,1.12,1.3Z"/><path class="cls-6" d="M975.71,576.71a.91.91,0,0,1-.51-.29.87.87,0,0,1,.09-1.21.83.83,0,0,1,.59-.2.84.84,0,0,0-.69.19.86.86,0,0,0-.09,1.21A.87.87,0,0,0,975.71,576.71Z"/><path class="cls-6" d="M976.31,576.5a.85.85,0,0,0-.52-1.5.84.84,0,0,1,.5.28.86.86,0,0,1-.09,1.21.87.87,0,0,1-.59.21A.91.91,0,0,0,976.31,576.5Z"/><path class="cls-4" d="M983.47,584.81a.86.86,0,1,0-1.21-.09A.86.86,0,0,0,983.47,584.81Z"/><path class="cls-6" d="M982.87,585a.84.84,0,0,1-.5-.28.86.86,0,0,1,.09-1.21.82.82,0,0,1,.59-.2.85.85,0,0,0-.79,1.4A.83.83,0,0,0,982.87,585Z"/><path class="cls-6" d="M983.47,584.81a.85.85,0,0,0-.52-1.5.9.9,0,0,1,.51.28.87.87,0,0,1-.09,1.21.84.84,0,0,1-.6.2A.85.85,0,0,0,983.47,584.81Z"/><g class="cls-7"><path class="cls-4" d="M978.89,593.85a13.85,13.85,0,0,1,2-27.6,13.85,13.85,0,1,0-2,27.6Z"/></g><g class="cls-8"><path class="cls-4" d="M988.37,590.5a13.85,13.85,0,0,0-8.6-24.34,13.85,13.85,0,0,1-2,27.6A13.78,13.78,0,0,0,988.37,590.5Z"/></g><path class="cls-9" d="M978.59,598.4a18.42,18.42,0,0,1,3-36.68,18.41,18.41,0,1,0-3,36.68Z"/><path class="cls-9" d="M991.36,594a18.41,18.41,0,0,0-11.31-32.35,18.42,18.42,0,0,1-2.86,36.69A18.42,18.42,0,0,0,991.36,594Z"/><rect class="cls-4" x="502.08" y="428.79" width="15.45" height="28.72"/><path class="cls-4" d="M519.7,457.51H499.91a3,3,0,0,1-2.62-4.57l4.79-8.21h15.45l4.79,8.21A3,3,0,0,1,519.7,457.51Z"/><path class="cls-5" d="M502.08,428.79h3.46v15.94l-2.66,8.21c-.65,2,.15,4.57,1.46,4.57h-4.43a3,3,0,0,1-2.62-4.57l4.79-8.21Z"/><path class="cls-5" d="M519.7,457.51h-4.42c1.3,0,2.11-2.55,1.45-4.57l-2.65-8.21V428.79h3.45v15.94l4.79,8.21A3,3,0,0,1,519.7,457.51Z"/><rect class="cls-4" x="506.23" y="448.19" width="7.16" height="50.95"/><path class="cls-4" d="M518.54,466.73H501.07a2.48,2.48,0,0,1-2.48-2.48h0a2.48,2.48,0,0,1,2.48-2.47h17.47a2.48,2.48,0,0,1,2.48,2.47h0A2.48,2.48,0,0,1,518.54,466.73Z"/><path class="cls-5" d="M521,464.25H498.59a2.48,2.48,0,0,1,2.47-2.47h17.48A2.48,2.48,0,0,1,521,464.25Z"/><path class="cls-5" d="M521,464.25a2.49,2.49,0,0,1-2.48,2.48H501.06a2.48,2.48,0,0,1-2.47-2.48Z"/><path class="cls-4" d="M518.54,473.26H501.07a2.48,2.48,0,0,1-2.48-2.48h0a2.48,2.48,0,0,1,2.48-2.47h17.47a2.48,2.48,0,0,1,2.48,2.47h0A2.48,2.48,0,0,1,518.54,473.26Z"/><path class="cls-5" d="M521,470.78H498.59a2.46,2.46,0,0,1,2.47-2.47h17.48A2.48,2.48,0,0,1,521,470.78Z"/><path class="cls-5" d="M521,470.78a2.49,2.49,0,0,1-2.48,2.48H501.06a2.48,2.48,0,0,1-2.47-2.48Z"/><rect class="cls-4" x="498.59" y="474.84" width="22.42" height="4.95" rx="2.42"/><path class="cls-5" d="M521,477.31H498.59a2.46,2.46,0,0,1,2.47-2.47h17.48A2.48,2.48,0,0,1,521,477.31Z"/><path class="cls-5" d="M521,477.31a2.49,2.49,0,0,1-2.48,2.48H501.06a2.48,2.48,0,0,1-2.47-2.48Z"/><path class="cls-4" d="M518.54,486.31H501.07a2.47,2.47,0,0,1-2.48-2.47h0a2.48,2.48,0,0,1,2.48-2.47h17.47a2.48,2.48,0,0,1,2.48,2.47h0A2.47,2.47,0,0,1,518.54,486.31Z"/><path class="cls-5" d="M521,483.84H498.59a2.46,2.46,0,0,1,2.47-2.47h17.48A2.48,2.48,0,0,1,521,483.84Z"/><path class="cls-5" d="M521,483.84a2.48,2.48,0,0,1-2.48,2.47H501.06a2.48,2.48,0,0,1-2.47-2.47Z"/><path class="cls-5" d="M507,464.25h0a7.65,7.65,0,0,0,.18,1.75c.12.45.27.73.45.73h-6.55a2.49,2.49,0,0,1-2.47-2.48h0a2.46,2.46,0,0,1,2.47-2.47h6.55c-.18,0-.33.28-.45.72A7.72,7.72,0,0,0,507,464.25Z"/><path class="cls-5" d="M521,464.25h0a2.54,2.54,0,0,1-.15.83,2.47,2.47,0,0,1-2.32,1.65H512c.14,0,.26-.18.36-.47a5.08,5.08,0,0,0,.22-1.18,7.33,7.33,0,0,0,0-.83h0a7.31,7.31,0,0,0-.07-1.09c-.1-.82-.31-1.38-.55-1.38h6.54a2.46,2.46,0,0,1,2.2,1.38A2.34,2.34,0,0,1,521,464.25Z"/><path class="cls-5" d="M521,470.78h0a2.5,2.5,0,0,1-2.47,2.47H512c.14,0,.26-.17.36-.47a5.08,5.08,0,0,0,.22-1.18,7.15,7.15,0,0,0,0-.82h0a7.54,7.54,0,0,0-.07-1.1c-.1-.81-.31-1.37-.55-1.37h6.54a2.47,2.47,0,0,1,2.2,1.37A2.42,2.42,0,0,1,521,470.78Z"/><path class="cls-5" d="M521,477.31h0a2.54,2.54,0,0,1-.15.83,2.46,2.46,0,0,1-2.32,1.64H512c.14,0,.26-.17.36-.46a5.08,5.08,0,0,0,.22-1.18,7.33,7.33,0,0,0,0-.83h0a7.17,7.17,0,0,0-.07-1.08c-.1-.83-.31-1.39-.55-1.39h6.54a2.46,2.46,0,0,1,2.21,1.39A2.42,2.42,0,0,1,521,477.31Z"/><path class="cls-5" d="M521,483.84h0a2.53,2.53,0,0,1-.15.82,2.47,2.47,0,0,1-2.32,1.65H512c.14,0,.26-.17.36-.47a5.08,5.08,0,0,0,.22-1.18,7.27,7.27,0,0,0,0-.82h0a7.4,7.4,0,0,0-.07-1.09c-.1-.81-.31-1.38-.55-1.38h6.54a2.49,2.49,0,0,1,2.47,2.47Z"/><path class="cls-5" d="M507,470.78h0a7.62,7.62,0,0,0,.18,1.74c.12.45.27.73.45.73h-6.55a2.49,2.49,0,0,1-2.47-2.47h0a2.48,2.48,0,0,1,2.47-2.47h6.55c-.18,0-.33.28-.45.73A7.56,7.56,0,0,0,507,470.78Z"/><path class="cls-5" d="M507,477.31h0a7.72,7.72,0,0,0,.18,1.75c.12.45.27.72.45.72h-6.55a2.42,2.42,0,0,1-1.74-.72,2.47,2.47,0,0,1-.73-1.75h0a2.46,2.46,0,0,1,2.47-2.47h6.55c-.18,0-.33.28-.45.72A7.72,7.72,0,0,0,507,477.31Z"/><path class="cls-5" d="M507,483.84h0a7.69,7.69,0,0,0,.18,1.74c.12.45.27.73.45.73h-6.55a2.43,2.43,0,0,1-1.74-.73,2.47,2.47,0,0,1-.73-1.74h0a2.48,2.48,0,0,1,2.47-2.47h6.55c-.18,0-.33.28-.45.73A7.56,7.56,0,0,0,507,483.84Z"/><path class="cls-4" d="M530.62,458.64v23.17H511.88V461.23a11.62,11.62,0,0,1,.29-2.59Z"/><rect class="cls-4" x="515.55" y="477.01" width="11.4" height="23.17"/><path class="cls-5" d="M516.65,481.81h1.8v18.36h-2.9V481.81h-3.67V461.23a11.62,11.62,0,0,1,.29-2.59h4.62a24.1,24.1,0,0,0-.14,2.59Z"/><polygon class="cls-5" points="530.62 458.64 530.62 481.81 526.94 481.81 526.94 500.17 524.04 500.17 524.04 481.81 525.84 481.81 525.84 458.64 530.62 458.64"/><path class="cls-4" d="M538.06,449.55v11.68H511.88a11.68,11.68,0,0,1,11.67-11.68Z"/><path class="cls-5" d="M538.06,449.55v2.35H525.91A11.68,11.68,0,0,0,514.52,461c0,.08,0,.16,0,.24h-2.6a11.68,11.68,0,0,1,11.67-11.68Z"/><path class="cls-5" d="M538.06,449.55v11.68H511.88a11.42,11.42,0,0,1,.24-2.35h23.59v-9.33Z"/><polygon class="cls-4" points="734.82 571.62 723.54 572.15 723.48 571.62 734.82 571.62"/><path class="cls-4" d="M564.39,453.35v55.3H528.64v-55.3a9.28,9.28,0,0,1,9.28-9.27h17.2A9.27,9.27,0,0,1,564.39,453.35Z"/><path class="cls-5" d="M543.7,444.08a6.8,6.8,0,0,0-6.81,6.8v57.77h-8.25v-55.3a9.28,9.28,0,0,1,9.28-9.27Z"/><path class="cls-5" d="M564.39,453.35v55.3h-8.25V450.88a6.8,6.8,0,0,0-6.81-6.8h5.79A9.27,9.27,0,0,1,564.39,453.35Z"/><rect class="cls-4" x="537.45" y="433.4" width="18.14" height="6.4"/><rect class="cls-4" x="536.38" y="438.74" width="20.28" height="6.4"/><polygon class="cls-5" points="537.45 433.4 541.62 433.4 541.62 438.74 541.04 438.74 541.04 445.14 536.38 445.14 536.38 438.74 537.45 438.74 537.45 433.4"/><polygon class="cls-5" points="556.66 438.74 556.66 445.14 552 445.14 552 438.74 551.42 438.74 551.42 433.4 555.59 433.4 555.59 438.74 556.66 438.74"/><rect class="cls-4" x="526.36" y="507.99" width="40.31" height="13.47"/><rect class="cls-5" x="526.36" y="507.99" width="5.64" height="13.47"/><rect class="cls-5" x="561.04" y="507.99" width="5.64" height="13.47"/><rect class="cls-4" x="544.74" y="522.21" width="64.17" height="20.75" transform="translate(171.06 -139.52) rotate(16.16)"/><rect class="cls-5" x="572.39" y="508.4" width="4.29" height="64.16" transform="matrix(0.28, -0.96, 0.96, 0.28, -104.52, 941.85)"/><rect class="cls-5" x="576.97" y="492.59" width="4.29" height="64.16" transform="translate(-86.15 934.65) rotate(-73.82)"/><circle class="cls-4" cx="546.01" cy="523.65" r="11.8" transform="translate(-175.74 750.39) rotate(-61.24)"/><path class="cls-10" d="M550.82,524.38a3.58,3.58,0,0,1-3.58,3.58,3.51,3.51,0,0,1-2.4-.92,3.46,3.46,0,0,0,1.17.2,3.59,3.59,0,0,0,3.59-3.59,3.54,3.54,0,0,0-1.18-2.65A3.57,3.57,0,0,1,550.82,524.38Z"/><path class="cls-5" d="M555.42,516.54a11.62,11.62,0,0,0-3.82-1.91,11.79,11.79,0,0,0-12.7,18.43,11.79,11.79,0,1,1,16.52-16.52Z"/><path class="cls-10" d="M557.34,526.93a11.8,11.8,0,0,1-20.75,3.82,11.79,11.79,0,0,0,16.52-16.52A11.79,11.79,0,0,1,557.34,526.93Z"/><circle class="cls-10" cx="546.01" cy="523.65" r="3.59"/><polygon class="cls-4" points="640.18 571.62 590.54 571.62 577.09 436 576.67 431.8 610.29 431.8 612.59 442.55 640.18 571.62"/><polygon class="cls-5" points="580.74 431.8 599.04 571.62 590.55 571.62 576.67 431.8 580.74 431.8"/><polygon class="cls-5" points="608.24 571.62 627.72 570.47 605.85 431.8 610.29 431.8 640.18 571.62 608.24 571.62"/><path class="cls-4" d="M1062.36,563.84v1.69a3.43,3.43,0,0,1-3.42,3.43h-21.13a12.23,12.23,0,0,0-7.81,2.8c-.3.25-.59.52-.87.79a12.42,12.42,0,0,0-3.14,5.36,4.56,4.56,0,0,1-4.39,3.32H588.82a3.74,3.74,0,0,1-1.07-.16l-.3-.11-.15-.07-.18-.08,0,0-.06,0-.07,0-.17-.11s0,0,0,0l-.12-.08-.14-.11c-.06-.06-.14-.12-.2-.19l-.13-.13-.1-.11-.07-.08,0,0-.12-.17,0,0,0-.06,0,0-.07-.13-.06-.11,0,0h0a1.63,1.63,0,0,1-.11-.23,2,2,0,0,1-.1-.26,1.21,1.21,0,0,1,0-.18,2.5,2.5,0,0,1-.07-.26c0-.11,0-.23,0-.35a2.23,2.23,0,0,1,0-.37V564a3.61,3.61,0,0,1,3.61-3.61h470.12a3.15,3.15,0,0,1,.44,0l.21,0,.09,0a.55.55,0,0,1,.17,0h.07l.06,0s0,0,.07,0l.25.1.13,0,.14.07,0,0,.23.14h0l.25.2.23.2,0,0,0,0,.09.09.11.13.1.12a.55.55,0,0,1,.09.14.42.42,0,0,1,.09.14.35.35,0,0,1,.05.08l0,.06,0,.08a.31.31,0,0,1,0,.1l0,0,.09.23a.78.78,0,0,0,0,.14l0,.13a2.55,2.55,0,0,1,.12.68A1.69,1.69,0,0,1,1062.36,563.84Z"/><path class="cls-10" d="M1060,560.58l.15.06-.08,0a.76.76,0,0,0-.2-.06,3.32,3.32,0,0,1,.13.9v1.35H591.21a3.62,3.62,0,0,0-3.62,3.62V580a3.73,3.73,0,0,0,.16,1.06,1.82,1.82,0,0,1-.3-.11l-.15-.07-.18-.08,0,0-.06,0-.07,0-.17-.11s0,0,0,0l-.12-.08-.14-.11a1.8,1.8,0,0,1-.2-.19l-.13-.13-.1-.11-.07-.08,0,0-.12-.17,0,0,0-.06,0,0s0-.09-.07-.14l-.06-.1,0,0h0a1.63,1.63,0,0,1-.11-.23,2,2,0,0,1-.1-.26,1.21,1.21,0,0,1,0-.18,2.5,2.5,0,0,1-.07-.26c0-.11,0-.23,0-.35a2.23,2.23,0,0,1,0-.37V564a3.6,3.6,0,0,1,3.61-3.61h470.12a3.15,3.15,0,0,1,.44,0l.21,0,.09,0,.24.06Z"/><path class="cls-5" d="M1061.24,561.3l-.13-.1s0,0,0,0Z"/><path class="cls-5" d="M585.83,579.64a2.43,2.43,0,0,0,.14.2l-.12-.17Z"/><path class="cls-10" d="M1062.36,563.84v1.69a3.43,3.43,0,0,1-3.42,3.43h-21.13a12.23,12.23,0,0,0-7.81,2.8c-.3.25-.59.52-.87.79a12.42,12.42,0,0,0-3.14,5.36,4.56,4.56,0,0,1-4.39,3.32H588.82a.91.91,0,0,1-1.23-1.22v-4.37h427.9a10.51,10.51,0,0,0,8.9-4.74c2-3.16,6.19-4.33,11-4.33h21.12a3.43,3.43,0,0,0,3.43-3.42v-1.7a3.32,3.32,0,0,0-.13-.9.76.76,0,0,1,.2.06l.25.1.13,0,.14.07,0,0,.23.14h0l.22.16,0,0,.13.1,0,0,.06.06,0,0,0,0,.09.09.11.13,0,0,.07.09a.55.55,0,0,1,.09.14.42.42,0,0,1,.09.14.35.35,0,0,1,.05.08l0,.06,0,.08a.31.31,0,0,1,0,.1l0,0,.09.23a.78.78,0,0,0,0,.14l0,.13h0a3.56,3.56,0,0,1,.13.68A1.69,1.69,0,0,1,1062.36,563.84Z"/><path class="cls-4" d="M549.08,416.86h44.5a18.31,18.31,0,0,1,18.31,18.31v.37a0,0,0,0,1,0,0H530.78a0,0,0,0,1,0,0v-.37A18.31,18.31,0,0,1,549.08,416.86Z"/><rect class="cls-4" x="489.78" y="487.87" width="78.35" height="17.58"/><rect class="cls-5" x="489.78" y="487.87" width="10.23" height="17.58"/><rect class="cls-5" x="557.89" y="487.87" width="10.24" height="17.58"/><rect class="cls-4" x="496.65" y="198.04" width="16.73" height="82.3" rx="8.2" transform="translate(-53.06 210.79) rotate(-22.43)"/><path class="cls-2" d="M335.42,140.07l3.34,3.8,3.4,3.83,6.86,7.64c4.6,5.08,9.19,10.15,13.84,15.14s9.34,9.92,14,14.74c2.35,2.4,4.71,4.77,7.08,7.07s4.73,4.54,7,6.61c1.16,1,2.31,2,3.4,2.91s2.13,1.69,2.79,2.17a2.9,2.9,0,0,1,.36.29s-.12,0-.13,0,0,0,.08.07a8.93,8.93,0,0,0,1.29.54c1.15.41,2.6.83,4.08,1.21,3,.78,6.22,1.48,9.48,2.14s6.6,1.27,9.95,1.85c6.7,1.2,13.48,2.3,20.28,3.34L452.82,215,463,216.45h.1a9.69,9.69,0,0,1-1.28,19.28c-14.11.16-28.05,0-42.25-.58q-5.33-.24-10.72-.61c-3.62-.26-7.25-.57-11.08-1.05-1.93-.25-3.89-.53-6.1-1-1.12-.24-2.26-.49-3.69-.93l-1.14-.38c-.42-.15-.9-.34-1.34-.52-.67-.28-1.4-.59-2-.87a68.54,68.54,0,0,1-6.05-3.29c-1.78-1.07-3.43-2.13-5-3.19-3.2-2.13-6.21-4.27-9.17-6.43s-5.84-4.33-8.68-6.53c-5.7-4.37-11.22-8.84-16.69-13.34s-10.89-9-16.23-13.65l-8-6.94-4-3.5-4-3.56a20.91,20.91,0,0,1,27.8-31.25,23.8,23.8,0,0,1,1.74,1.74Z"/><path class="cls-2" d="M339.93,200c8.69-12.16,26.37-34.62,26.4-34.67C353,151.52,322.42,116.17,303,139.65,280.42,167,325.82,189.1,339.93,200Z"/><path class="cls-2" d="M481.7,239.51c6.86,2.6,13.1,5.26,20.42,5.73,10.35.67,7.54-5.21,6-5.78,1.56,0,2.56-.06,4.11-.14,3-.14,4.49-5.67.12-6.16,6.34-.29,9.11-7,2.09-7.55,5.23,0,3.17-6.36-.3-6.72,1.13-.4.8-2.23-.2-2.89s-2.29-.71-3.35-1.27c-1.73-.9-2.5-2.94-4-4.23-2.08-1.81-5.16-1.81-7.87-1.32-6.11,1.11-11.66,4.14-17.43,6.39s-9.11,1.42-19.24.74c.48,6.56-1.87,16.85-1.79,19.44C469,236,474.67,236.84,481.7,239.51Z"/><rect class="cls-2" x="239.54" y="536.63" width="22.25" height="25.82" transform="translate(-272.66 851.12) rotate(-95.43)"/><path class="cls-2" d="M310.94,579.71a10.71,10.71,0,0,1-4.51,3.58c-2.17,1-24.3,2.44-36.42,2.36-4.05,0-7-.23-7.69-.66-1.06-.65-2.7-5.81-6-5.89s-7,6.23-7,6.23-24-.69-26.36-5.2c-1-1.88-.69-5.37.17-9,.24-1,.53-2.09.85-3.11,2-6.4,5.55-18.95,11.2-19,2,0,11.37,12.37,19.16,9.53,4.58-1.67,3.65-10.55,8.68-13.47,5.49-3.16,7.17,1.11,10.53,7.22.2.37.41.74.63,1.12a48.82,48.82,0,0,0,3.39,5.28l.79,1a34.36,34.36,0,0,0,3.7,3.91l.15.13c.32.28.65.54,1,.79a22.36,22.36,0,0,0,4.91,2.59c.4.16.81.32,1.22.46,4.48,1.6,9.63,2.57,13.85,3.67,4.58,1.2,8.08,2.59,8.44,5.14A4.79,4.79,0,0,1,310.94,579.71Z"/><path class="cls-2" d="M310.94,579.71a10.71,10.71,0,0,1-4.51,3.58c-2.9,1.37-41.31,3.42-44.12,1.7-1.05-.65-2.7-5.81-6-5.89s-7,6.22-7,6.22-24-.68-26.36-5.19c-1.25-2.42-.42-7.5,1-12.1a12,12,0,0,1,4.64.46c7.23,2.08,14.41,4.17,21.78,5.76a249.08,249.08,0,0,0,44.3,5.47C300.15,579.89,305.55,579.9,310.94,579.71Z"/><path class="cls-2" d="M289.4,567.61a.52.52,0,0,1-.06.13c-.13.2-2.69,3.71-2.72,3.74a.62.62,0,0,1-.54.26.64.64,0,0,1-.49-1c.13-.18,2.14-2.93,2.59-3.57C288.58,567.31,289,567.47,289.4,567.61Z"/><path class="cls-2" d="M283.27,564.56a.05.05,0,0,1,0,0,35.48,35.48,0,0,0-2.33,3.06.64.64,0,0,1-.56.28.59.59,0,0,1-.33-.11.64.64,0,0,1-.17-.89,34.58,34.58,0,0,1,2.41-3.17C282.59,564.05,282.92,564.31,283.27,564.56Z"/><path class="cls-2" d="M278.42,559.73h0a26.21,26.21,0,0,0-3.07,2.85.65.65,0,0,1-.5.21.6.6,0,0,1-.4-.17.65.65,0,0,1-.05-.91,26.41,26.41,0,0,1,3.23-3l0,0Z"/><path class="cls-2" d="M274.24,553.44c-1,.85-2,1.77-3.1,2.81a.63.63,0,0,1-.48.18.61.61,0,0,1-.43-.19.65.65,0,0,1,0-.91c1.13-1.09,2.19-2.05,3.25-2.93l.12-.08C273.81,552.69,274,553.06,274.24,553.44Z"/><path class="cls-2" d="M311.43,422.57c-3.88,19.37-31.68,88.06-37.21,125.56-17.09,2.37-23.55,1.41-45.55,2.37,6.56-39.89,28.53-128.37,30.83-137,3.85-14.39,7.87-103.66,9.31-128.14,34-9.27,67.11,2.31,88.41-3.73C349.67,329.1,320.26,378.4,311.43,422.57Z"/></g></g></svg>